<svg width="64" height="64" viewBox="0 0 64 64" fill="none" xmlns="http://www.w3.org/2000/svg">
<rect width="64" height="64" fill="white"/>
<g clip-path="url(#clip0_1166_13319)">
<path d="M32.4999 59.2958C17.3379 59.2958 5.00293 47.1567 5.00293 32.2355C5.00293 17.3147 17.3381 5.17578 32.4999 5.17578C47.6618 5.17578 59.9972 17.3147 59.9972 32.2355C59.9974 47.1567 47.6618 59.2958 32.4999 59.2958Z" fill="white"/>
<path d="M57.5186 32.2358C57.5205 29.6264 57.0997 27.034 56.2727 24.5592C52.4879 15.55 43.4608 9.20898 32.9254 9.20898C18.9805 9.20898 7.67578 20.3161 7.67578 34.0171C7.67578 34.6042 7.69813 35.1859 7.73894 35.7627C9.48003 47.6674 19.9018 56.8172 32.5 56.8172C46.3173 56.8172 57.5186 45.8117 57.5186 32.2358Z" fill="#EB6A0A" stroke="#EB6A0A" stroke-width="0.194319"/>
<path d="M37.2603 21.817C37.2603 21.817 35.0257 20.6025 32.5967 22.8858C32.5967 22.8858 30.5563 24.7804 28.6617 24.9747C28.6617 24.9747 28.856 24.6832 28.856 23.8574C28.856 23.8574 25.7469 27.258 21.1318 22.4486C21.1318 22.4486 22.4921 23.2744 25.0182 19.8738C25.0182 19.8738 27.7873 16.0846 30.1677 17.2991C30.1677 17.2991 29.9248 16.619 29.5847 16.4247C29.5847 16.4247 35.9001 15.0644 37.2603 21.817Z" fill="#4C8A24"/>
<path d="M32.5968 22.887C34.7098 20.9009 36.6747 21.5614 37.151 21.7668C36.0174 20.1287 32.5851 16.1896 28.176 20.701C25.0741 23.8752 22.3752 23.1125 21.1904 22.5095C25.7733 27.2297 28.8561 23.8586 28.8561 23.8586C28.8561 24.6845 28.6618 24.976 28.6618 24.976C30.5564 24.7817 32.5968 22.887 32.5968 22.887Z" fill="url(#paint0_linear_1166_13319)"/>
<path d="M54.6443 28.8703C55.4029 26.4248 55.0166 23.2722 52.3744 22.1288C51.7266 21.8484 51.0463 21.7056 50.352 21.7056C49.4486 21.7056 48.6031 21.9529 47.924 22.2973C47.8826 21.6315 47.5602 21.0305 46.9662 20.5109C46.5546 20.1508 46.0154 19.9684 45.3638 19.9684C44.8807 19.9684 44.332 20.0694 43.7265 20.269C43.723 20.2649 43.7204 20.2606 43.7171 20.2565L43.6975 20.2299L43.6767 20.2045C43.3963 19.8652 41.9146 18.1738 40.2808 18.1738C39.68 18.1738 39.1299 18.401 38.6897 18.8312C37.6023 19.8924 37.8472 21.3982 38.2144 22.4661C38.0038 22.5237 37.7911 22.5734 37.5769 22.6152C37.0893 22.7083 36.2656 23.17 36.1303 24.0125C36.1134 24.1204 36.1089 24.2298 36.1169 24.3386C35.9431 24.3222 35.7686 24.3135 35.594 24.3126C35.0519 24.3126 34.4942 24.3907 33.9371 24.5442C32.5051 24.9398 31.6416 25.913 31.1509 26.7227C30.8643 26.5842 30.5439 26.4858 30.2108 26.4858C29.8817 26.4839 29.5602 26.5843 29.2907 26.773C28.5233 27.313 28.577 28.0961 28.7962 28.7333C28.4648 28.3276 28.0873 27.9926 27.6576 27.7306C26.6215 27.0983 25.5328 26.7783 24.4211 26.7783C23.1708 26.7783 22.0321 27.1953 21.1266 27.8033C21.4198 27.2923 21.6324 26.7715 21.7204 26.2569C21.863 25.4221 21.6823 24.6392 21.1981 23.9933C20.6725 23.2924 19.7465 22.922 18.5198 22.922C17.0888 22.922 15.4021 23.4175 14.1175 24.215C14.004 24.2854 13.8855 24.3573 13.7625 24.4317C12.5979 25.1386 11.0026 26.1069 9.66777 28.1206C8.83725 29.3746 8.63205 30.5982 8.82501 33.1516C8.8526 33.8008 9.34248 42.3675 15.9163 46.9847C16.5084 47.4008 17.2967 47.8778 18.1461 47.8778C18.7932 47.8778 20.3007 47.5706 20.3279 44.7256C20.3328 44.1595 20.3114 43.5935 20.2636 43.0294C20.628 43.5156 21.0564 43.9254 21.5364 44.2213C22.2701 44.6735 23.0464 44.9032 23.8435 44.9032C26.1342 44.9032 27.8059 43.0682 27.8731 41.4214C27.8912 40.984 27.8518 40.6033 27.7674 40.2716C28.4343 40.4943 29.1255 40.5948 29.8121 40.6517C29.9158 40.6604 30.0114 40.6641 30.0995 40.6641C31.0755 40.6641 31.464 40.1583 31.6091 39.8573C31.7887 39.4834 31.7642 39.1012 31.6647 38.7693C32.0492 38.9809 32.4803 39.0913 32.9544 39.0913C33.1009 39.0913 33.2529 39.0802 33.4046 39.0583C34.3754 38.9174 35.1296 38.4366 35.5857 37.6673C35.8023 37.302 35.9362 36.8939 36.0062 36.4686C36.1068 36.6974 36.2353 36.9129 36.3888 37.1102C36.8917 37.7507 37.6048 38.0896 38.4513 38.0896C38.7562 38.0896 39.0795 38.0441 39.4132 37.9551C41.0795 37.509 42.0085 36.1101 42.3744 34.4234C42.5879 34.6128 42.8637 34.7169 43.1491 34.7158C43.7482 34.7158 44.1996 34.2877 44.5782 33.8845C44.6417 33.8159 45.3605 33.0235 45.9227 31.6279C46.0876 31.886 46.2664 32.0941 46.4397 32.2332C47.0965 32.759 47.9117 33.0602 48.6766 33.0602C49.5669 33.0602 50.3234 32.6446 50.7392 31.939C51.2872 32.437 52.0078 32.7802 52.8979 32.9642C53.0476 32.9951 53.1919 33.0105 53.3284 33.0105C53.8769 33.0105 54.3336 32.7575 54.5796 32.3168C54.9144 31.7188 54.7294 31.0125 54.4459 30.5508C54.3917 30.4649 54.2306 30.2026 54.6443 28.8703Z" fill="white"/>
<path d="M20.3382 33.0897C19.4661 32.2846 17.5076 33.3376 16.523 33.9581C16.1963 33.2723 15.8541 32.594 15.4966 31.9238C15.4966 31.9238 22.433 27.2951 20.4031 24.5882C19.5287 23.4223 16.5168 23.892 14.6383 25.0579C13.4918 25.7697 11.8412 26.6342 10.4929 28.6689C9.87512 29.6011 9.61843 30.5311 9.81274 33.0897C9.81274 33.0897 10.1204 41.7044 16.4843 46.1738C17.1158 46.6172 19.3019 48.117 19.3344 44.7164C19.3546 42.6247 18.9887 40.2758 17.9825 37.4475C19.4611 36.1949 21.2494 33.9305 20.3382 33.0897Z" fill="#0B2D63"/>
<path d="M23.8365 33.543C23.8365 33.543 23.5009 30.5313 21.2456 31.3622C20.015 31.8155 19.8677 30.9961 20.1769 30.2934C20.8895 28.6742 23.9014 26.6014 27.1399 28.577C28.5818 29.4565 29.4393 31.4271 29.5689 35.3568C29.6402 37.521 30.4109 38.4982 30.4109 38.4982C30.4109 38.4982 31.4472 39.7937 29.8927 39.6641C28.3381 39.5347 26.604 39.2053 25.4233 36.9114C24.4842 35.0867 22.8972 35.7993 22.5732 36.5441C22.3134 37.1418 22.0227 38.8759 23.9982 38.984C26.042 39.0957 26.9495 39.7084 26.8805 41.3807C26.8158 42.9566 24.456 44.8582 22.055 43.3777C19.6909 41.9203 18.266 36.2635 23.8365 33.543ZM31.5444 28.2317C31.5444 28.2317 30.4919 27.1395 29.8602 27.5841C29.2772 27.9943 30.0223 28.9659 30.2488 29.4517C30.4754 29.9375 30.5403 31.082 30.5403 33.1546C30.5403 35.2274 31.0261 38.4012 33.2608 38.0775C35.4955 37.7536 35.2364 35.195 34.7182 33.8025C34.2001 32.4098 32.4503 29.8959 33.6821 28.0267C34.6212 26.6018 36.3726 27.2972 36.8557 28.394C37.536 29.9376 37.1901 31.9401 36.7912 33.565C36.3701 35.2814 36.8559 37.6133 39.1553 36.9978C41.4548 36.3824 41.7908 33.3505 41.4548 31.2007C41.0986 28.9227 38.554 24.2989 34.2001 25.5008C32.1273 26.0724 31.5444 28.2317 31.5444 28.2317Z" fill="#0B2D63"/>
<path d="M46.3125 21.2558C45.6157 20.6463 44.2032 21.1049 43.3511 21.471C43.209 21.256 43.0625 21.0439 42.912 20.8348C42.912 20.8348 40.742 18.2114 39.3818 19.5392C38.7475 20.1585 38.6692 21.2234 39.5436 23.0805C39.5436 23.0805 38.6694 23.4145 37.7625 23.5875C37.4621 23.6448 36.4994 24.2351 37.6653 24.883C39.0248 25.6383 40.0619 25.725 40.9363 25.7899C40.9363 25.7899 43.2681 28.9962 42.912 32.5263C42.734 34.2904 43.3653 33.7247 43.8511 33.2065C43.8511 33.2065 46.8108 30.033 45.0291 24.8092C45.4057 24.6084 45.8555 24.3138 46.2152 23.9116C46.7661 23.2962 47.4684 22.2671 46.3125 21.2558ZM49.8427 26.3081C49.8427 26.3081 49.8103 24.7211 48.0614 24.8832C46.5817 25.0202 47.1646 24.1617 47.446 23.8469C47.9967 23.2315 49.9032 22.1381 51.9802 23.0372C54.1502 23.9763 54.2796 26.6968 53.6967 28.5753C53.2192 30.1135 53.3525 30.6675 53.5995 31.069C53.8585 31.49 53.8997 32.1581 53.0974 31.9922C52.393 31.8464 50.8835 31.4698 50.5229 29.4821C50.2069 27.7414 49.5511 27.4257 48.8467 27.6686C48.2612 27.8705 47.7913 29.0659 48.8952 29.4417C50.0852 29.8467 50.3041 30.5591 49.9399 31.3282C49.4566 32.3493 48.029 32.2351 47.0574 31.4578C46.5312 31.0367 45.5353 28.9316 47.0251 27.3446C48.2635 26.0256 49.519 26.2434 49.8427 26.3081Z" fill="#0B2D63"/>
<path d="M32.5 56.817C46.3174 56.817 57.5186 45.8116 57.5186 32.2357C57.5186 18.6597 46.3174 7.6543 32.5 7.6543C18.6826 7.6543 7.48145 18.6597 7.48145 32.2357C7.48145 45.8116 18.6826 56.817 32.5 56.817Z" stroke="#EB6A0A" stroke-width="0.194319"/>
<path d="M55.7736 29.0957C56.3678 29.0957 56.8293 29.5572 56.8293 30.1322C56.8293 30.72 56.3678 31.1751 55.7674 31.1751C55.1734 31.1751 54.6992 30.72 54.6992 30.1322C54.6992 29.557 55.1734 29.0957 55.7674 29.0957H55.7736ZM55.761 29.3044C55.3059 29.3044 54.9645 29.6771 54.9645 30.1324C54.9645 30.5939 55.3059 30.9606 55.7734 30.9606C56.2285 30.9668 56.5633 30.5939 56.5633 30.1324C56.5633 29.6773 56.2281 29.3044 55.7668 29.3044H55.761ZM55.603 30.6695H55.363V29.639C55.4942 29.6133 55.6275 29.6007 55.7612 29.6013C55.9572 29.6013 56.0455 29.633 56.1214 29.6835C56.1784 29.7278 56.2227 29.8098 56.2227 29.9048C56.2227 30.0249 56.1343 30.1134 56.0082 30.1514V30.1639C56.1094 30.1956 56.1659 30.2776 56.1978 30.4167C56.2293 30.5747 56.2485 30.638 56.274 30.6697H56.0148C55.9833 30.6318 55.964 30.5432 55.9326 30.4229C55.9133 30.3092 55.8504 30.2585 55.7178 30.2585H55.604V30.6695H55.603ZM55.6096 30.0881H55.7233C55.8562 30.0881 55.9633 30.0436 55.9633 29.9363C55.9633 29.8417 55.8941 29.7785 55.7419 29.7785C55.6788 29.7785 55.6345 29.7848 55.609 29.791V30.0881H55.6096Z" fill="white"/>
<path d="M32.5 7.6543C18.6828 7.6543 7.48145 18.6598 7.48145 32.2357C7.48145 33.4334 7.57044 34.6106 7.73892 35.7624C7.69811 35.1852 7.67576 34.6038 7.67576 34.017C7.67576 20.3159 18.9805 9.20885 32.9252 9.20885C43.461 9.20885 52.4881 15.5499 56.2724 24.5591C52.9908 14.7429 43.5887 7.6543 32.5 7.6543Z" fill="#E64415"/>
</g>
<defs>
<linearGradient id="paint0_linear_1166_13319" x1="21.1902" y1="21.8162" x2="37.1508" y2="21.8162" gradientUnits="userSpaceOnUse">
<stop offset="0.066" stop-color="#4C8A24"/>
<stop offset="0.399" stop-color="#3A6F24"/>
<stop offset="0.709" stop-color="#2F5C22"/>
<stop offset="0.888" stop-color="#2B5521"/>
</linearGradient>
<clipPath id="clip0_1166_13319">
<rect width="55" height="54.12" fill="white" transform="translate(5 5.17578)"/>
</clipPath>
</defs>
</svg>
