<svg width="64" height="64" viewBox="0 0 64 64" fill="none" xmlns="http://www.w3.org/2000/svg">
<g clip-path="url(#clip0_1166_13354)">
<rect width="64" height="64" fill="white"/>
<g clip-path="url(#clip1_1166_13354)">
<path fill-rule="evenodd" clip-rule="evenodd" d="M23.9987 2C20.682 2.00245 17.9977 4.68868 18.0002 7.99878C17.9977 11.3089 20.6844 13.9951 24.0011 13.9976H30.0021V8.00122C30.0046 4.69113 27.3179 2.00489 23.9987 2C24.0011 2 24.0011 2 23.9987 2ZM23.9987 18H8.00099C4.68427 18.0024 1.99756 20.6887 2.00001 23.9988C1.9951 27.3089 4.68182 29.9951 7.99854 30H23.9987C27.3154 29.9976 30.0021 27.3113 29.9997 24.0012C30.0021 20.6887 27.3154 18.0024 23.9987 18Z" fill="#36C5F0"/>
<path fill-rule="evenodd" clip-rule="evenodd" d="M61.9997 23.9988C62.0021 20.6887 59.3154 18.0024 55.9987 18C52.682 18.0024 49.9953 20.6887 49.9977 23.9988V30H55.9987C59.3154 29.9976 62.0021 27.3113 61.9997 23.9988ZM45.9995 23.9988V7.99878C46.002 4.69113 43.3177 2.00489 40.001 2C36.6843 2.00245 33.9976 4.68868 34 7.99878V23.9988C33.9951 27.3089 36.6818 29.9951 39.9985 30C43.3153 29.9976 46.002 27.3113 45.9995 23.9988Z" fill="#2EB67D"/>
<path fill-rule="evenodd" clip-rule="evenodd" d="M39.999 62.0005C43.3157 61.998 46.0025 59.3118 46 56.0017C46.0025 52.6916 43.3157 50.0054 39.999 50.0029H33.998V56.0017C33.9956 59.3094 36.6823 61.9956 39.999 62.0005ZM39.999 45.998H55.9992C59.3159 45.9956 62.0026 43.3094 62.0002 39.9993C62.0051 36.6892 59.3184 34.0029 56.0016 33.998H40.0015C36.6848 34.0005 33.998 36.6867 34.0005 39.9968C33.998 43.3094 36.6823 45.9956 39.999 45.998Z" fill="#ECB22E"/>
<path fill-rule="evenodd" clip-rule="evenodd" d="M2 39.9988C1.99755 43.3089 4.68426 45.9951 8.00098 45.9976C11.3177 45.9951 14.0044 43.3089 14.002 39.9988V34H8.00098C4.68426 34.0024 1.99755 36.6887 2 39.9988ZM18.0002 39.9988V55.9988C17.9953 59.3089 20.682 61.9951 23.9987 62C27.3154 61.9976 30.0021 59.3113 29.9997 56.0012V40.0037C30.0046 36.6936 27.3179 34.0073 24.0011 34.0024C20.682 34.0024 17.9977 36.6887 18.0002 39.9988Z" fill="#E01E5A"/>
</g>
</g>
<defs>
<clipPath id="clip0_1166_13354">
<rect width="64" height="64" fill="white"/>
</clipPath>
<clipPath id="clip1_1166_13354">
<rect width="60" height="60" fill="white" transform="translate(2 2)"/>
</clipPath>
</defs>
</svg>
