<svg width="64" height="64" viewBox="0 0 64 64" fill="none" xmlns="http://www.w3.org/2000/svg">
<rect width="64" height="64" fill="white"/>
<path fill-rule="evenodd" clip-rule="evenodd" d="M58.3932 51.3624C57.9775 51.3654 57.6611 51.0407 57.6611 50.6124C57.6611 50.1914 57.9775 49.8594 58.3932 49.8594C58.8036 49.8594 59.1177 50.1914 59.1177 50.6124C59.1177 51.0357 58.8036 51.3654 58.3932 51.3624ZM58.3932 51.5092C58.871 51.5092 59.2608 51.1091 59.2608 50.6127C59.2608 50.1104 58.871 49.7109 58.3932 49.7109C57.9068 49.7109 57.5146 50.1104 57.5146 50.6127C57.5146 51.1091 57.9068 51.5092 58.3932 51.5092ZM58.5107 50.6569C58.6814 50.6516 58.8222 50.5785 58.8222 50.3717C58.8222 50.288 58.7807 50.199 58.7073 50.1575C58.6366 50.1051 58.5529 50.1051 58.4659 50.1051H58.0449V51.1118H58.1817V50.6569H58.3666L58.6442 51.1118H58.7979L58.5107 50.6569ZM58.1817 50.5443V50.2123H58.443C58.5599 50.2123 58.6811 50.2256 58.6811 50.3693C58.6811 50.5702 58.4845 50.5443 58.3457 50.5443H58.1817Z" fill="#255398"/>
<path fill-rule="evenodd" clip-rule="evenodd" d="M21.5674 27.2536C21.5674 37.3439 29.7781 45.5516 39.871 45.5516C49.9583 45.5516 58.1656 37.3436 58.1656 27.2536C58.1656 17.1743 49.9583 8.97461 39.871 8.97461C29.7781 8.97461 21.5674 17.1743 21.5674 27.2536Z" fill="#D3DADD"/>
<path fill-rule="evenodd" clip-rule="evenodd" d="M39.896 44.6449C49.6207 44.6449 57.4578 36.8317 57.4578 27.2285C57.4578 17.6977 49.6207 9.88477 39.896 9.88477C30.1719 9.88477 22.2617 17.698 22.2617 27.2285C22.2617 36.8317 30.1722 44.6449 39.896 44.6449Z" fill="#B9BABC"/>
<path fill-rule="evenodd" clip-rule="evenodd" d="M22.5762 27.1558C22.5762 36.6866 30.4136 44.4271 40.065 44.4271C47.7334 44.4271 54.2163 39.4925 56.5866 32.6953C57.1431 30.9777 57.4575 29.1881 57.4575 27.2285C57.4575 17.8673 49.8624 10.1992 40.3794 9.88477H40.065C30.4136 9.88477 22.5762 17.6253 22.5762 27.1558Z" fill="#BDBFC1"/>
<path fill-rule="evenodd" clip-rule="evenodd" d="M22.8906 27.0107C22.8906 36.4445 30.6557 44.185 40.2104 44.185C47.8062 44.185 54.289 39.3474 56.5866 32.5499C57.1653 30.8355 57.4595 29.0379 57.4575 27.2285C57.4575 17.8673 49.8624 10.1992 40.4521 9.88477H40.2101C30.6557 9.88477 22.8906 17.5526 22.8906 27.0107Z" fill="#BDBFC1"/>
<path fill-rule="evenodd" clip-rule="evenodd" d="M23.2051 26.914C23.2051 36.2998 30.8732 43.9433 40.3795 43.9433C47.9752 43.9433 54.3614 39.1057 56.659 32.4775C57.1428 30.833 57.4572 29.0427 57.4572 27.2285C57.4572 17.8673 49.9348 10.1992 40.5245 9.88477H40.3791C30.8732 9.88477 23.2051 17.5526 23.2051 26.914Z" fill="#BFC1C3"/>
<path fill-rule="evenodd" clip-rule="evenodd" d="M23.4473 26.769C23.4473 36.1301 31.1154 43.6289 40.525 43.6289C48.0481 43.6289 54.3619 38.9603 56.6595 32.3809C57.216 30.7602 57.4577 29.0427 57.4577 27.2285C57.4577 17.8673 49.9353 10.2958 40.525 9.88477C31.1154 9.88477 23.4473 17.4802 23.4473 26.769Z" fill="#C1C3C5"/>
<path fill-rule="evenodd" clip-rule="evenodd" d="M23.7617 26.6962C23.7617 35.9123 31.3571 43.4111 40.6944 43.4111C48.0481 43.4111 54.3619 38.7909 56.7322 32.3081C57.216 30.6633 57.458 29.0427 57.458 27.2285C57.458 17.9397 50.0323 10.2958 40.6947 9.88477C31.3571 9.98139 23.7617 17.3832 23.7617 26.6962Z" fill="#C4C5C7"/>
<path fill-rule="evenodd" clip-rule="evenodd" d="M24.0762 26.5269C24.0762 35.7429 31.5989 43.1694 40.9361 43.1694C48.1932 43.1694 54.3619 38.6459 56.7319 32.2354C57.2157 30.6633 57.4577 29.0427 57.4577 27.2285C57.4577 17.9397 50.1047 10.3685 40.7668 9.88477C31.5023 9.98139 24.0762 17.3832 24.0762 26.5269Z" fill="#C6C7C9"/>
<path fill-rule="evenodd" clip-rule="evenodd" d="M24.3184 26.4542C24.3184 35.5979 31.8414 42.9273 41.0817 42.9273C48.2903 42.9273 54.3621 38.4765 56.7324 32.163C57.2162 30.5909 57.4582 28.946 57.4582 27.2285C57.4582 18.0121 50.1052 10.4409 40.84 9.88477C31.6717 10.0538 24.3184 17.3832 24.3184 26.4542Z" fill="#C8C9CB"/>
<path fill-rule="evenodd" clip-rule="evenodd" d="M24.6328 26.3091C24.6328 35.3558 32.0589 42.7099 41.2507 42.7099C48.3627 42.7099 54.4584 38.3311 56.7321 32.0661C57.2159 30.5182 57.4579 28.946 57.4579 27.2285C57.4579 18.0121 50.1772 10.4409 40.9363 9.88477C31.9138 10.0538 24.6328 17.3832 24.6328 26.3091Z" fill="#C8C9CB"/>
<path fill-rule="evenodd" clip-rule="evenodd" d="M24.9473 26.2119C24.9473 35.2105 32.301 42.4672 41.3962 42.4672C48.4354 42.4672 54.4587 38.0885 56.8287 31.9931C57.2159 30.4449 57.4579 28.8727 57.4579 27.2276C57.4579 18.0112 50.1773 10.5127 41.009 9.98047C32.0589 10.1259 24.9473 17.3099 24.9473 26.2119Z" fill="#CACBCD"/>
<path fill-rule="evenodd" clip-rule="evenodd" d="M25.1885 26.0665C25.1885 34.9684 32.5422 42.2252 41.5647 42.2252C48.5073 42.2252 54.4579 37.9434 56.8282 31.9204C57.2154 30.4449 57.4574 28.8724 57.4574 27.2276C57.4574 18.1081 50.2488 10.5127 41.0812 9.98047C32.3005 10.1983 25.1885 17.3096 25.1885 26.0665Z" fill="#CCCDCF"/>
<path fill-rule="evenodd" clip-rule="evenodd" d="M25.5029 25.9941C25.5029 34.7987 32.7843 42.0074 41.7101 42.0074C48.6043 42.0074 54.4583 37.774 56.8283 31.8477C57.2154 30.3479 57.4574 28.8724 57.4574 27.2276C57.4574 18.1081 50.3461 10.6093 41.1536 9.98047C32.4698 10.1983 25.5029 17.3096 25.5029 25.9941Z" fill="#CCCDCF"/>
<path fill-rule="evenodd" clip-rule="evenodd" d="M25.7451 25.8244C25.7451 34.6537 33.0264 41.7653 41.8796 41.7653C48.6772 41.7653 54.4584 37.6289 56.9011 31.775C57.2882 30.3479 57.4576 28.7997 57.4576 27.2276C57.4576 18.1805 50.3463 10.682 41.3231 9.98047C32.7117 10.2949 25.7451 17.3096 25.7451 25.8244Z" fill="#D0D1D3"/>
<path fill-rule="evenodd" clip-rule="evenodd" d="M26.0596 25.752C26.0596 34.4119 33.2436 41.5236 42.0247 41.5236C48.7496 41.5236 54.5308 37.4599 56.9011 31.6784C57.2883 30.2756 57.4576 28.8 57.4576 27.2276C57.4576 18.1805 50.419 10.682 41.3231 9.98047C32.8571 10.2949 26.0596 17.2372 26.0596 25.752Z" fill="#D0D1D3"/>
<path fill-rule="evenodd" clip-rule="evenodd" d="M26.374 25.5827C26.374 34.2665 33.4854 41.2816 42.2668 41.2816C48.8223 41.2816 54.5312 37.3145 56.9012 31.5333C57.2883 30.2028 57.4576 28.7273 57.4576 27.2276C57.4576 18.1805 50.419 10.7544 41.4686 9.98047C33.0265 10.3676 26.374 17.2372 26.374 25.5827Z" fill="#D5D6D7"/>
<path fill-rule="evenodd" clip-rule="evenodd" d="M26.6885 25.5103C26.6885 34.0975 33.7274 41.0637 42.4361 41.0637C48.9917 41.0637 54.5312 37.0725 56.9012 31.5333C57.2883 30.1305 57.4577 28.7273 57.4577 27.2276C57.4577 18.2532 50.4918 10.8268 41.5652 9.98047C33.2437 10.44 26.6885 17.1648 26.6885 25.5103Z" fill="#D5D6D7"/>
<path fill-rule="evenodd" clip-rule="evenodd" d="M26.9307 25.3649C26.9307 33.8797 33.9703 40.8217 42.5814 40.8217C49.0642 40.8217 54.6037 36.9274 56.974 31.4606C57.2885 30.1305 57.4578 28.7273 57.4578 27.2276C57.4578 18.2532 50.4919 10.8268 41.6381 9.98047C33.4138 10.44 26.9307 17.1648 26.9307 25.3649Z" fill="#D7D8D9"/>
<path fill-rule="evenodd" clip-rule="evenodd" d="M27.2451 25.2925C27.2451 33.7104 34.2114 40.58 42.7507 40.58C49.1612 40.58 54.6037 36.758 56.9741 31.3639C57.2885 30.0577 57.4578 28.6307 57.4578 27.2276C57.4578 18.2532 50.5636 10.8998 41.7105 9.98047C33.6555 10.5127 27.2451 17.1648 27.2451 25.2925Z" fill="#D9DADB"/>
<path fill-rule="evenodd" clip-rule="evenodd" d="M27.5596 25.1232C27.5596 33.5653 34.4292 40.3625 42.8958 40.3625C49.2336 40.3625 54.6038 36.6133 56.9738 31.2188C57.2981 29.9133 57.4606 28.5728 57.4575 27.2276C57.4575 18.3256 50.5633 10.9965 41.8068 9.98047C33.8003 10.5127 27.5596 17.1648 27.5596 25.1232Z" fill="#DBDCDD"/>
<path fill-rule="evenodd" clip-rule="evenodd" d="M27.8018 25.0505C27.8018 33.3232 34.6714 40.1205 43.0653 40.1205C49.3064 40.1205 54.6039 36.4436 57.0708 31.1461C57.2887 29.8884 57.458 28.558 57.458 27.2276C57.458 18.3256 50.6611 10.9965 41.88 9.98047C34.0429 10.6093 27.8018 17.0921 27.8018 25.0505Z" fill="#DBDCDD"/>
<path fill-rule="evenodd" clip-rule="evenodd" d="M28.1162 24.881C28.1162 33.178 34.9134 39.8783 43.2108 39.8783C49.3792 39.8783 54.6766 36.2257 57.0709 31.0733C57.2887 29.8153 57.458 28.5575 57.458 27.2274C57.458 18.3982 50.7332 11.0687 41.9527 10.0527C34.2115 10.6819 28.1162 17.092 28.1162 24.881Z" fill="#DFE0E1"/>
<path fill-rule="evenodd" clip-rule="evenodd" d="M28.4297 24.8083C28.4297 33.0087 35.1542 39.6608 43.3792 39.6608C49.4748 39.6608 54.6757 36.0567 57.0699 30.9767C57.2877 29.8156 57.4571 28.5579 57.4571 27.2274C57.4571 18.3982 50.7322 11.0687 42.0245 10.0527C34.4287 10.6819 28.4297 17.092 28.4297 24.8083Z" fill="#DFE0E1"/>
<path fill-rule="evenodd" clip-rule="evenodd" d="M28.6719 24.6632C28.6719 32.7909 35.3964 39.3464 43.621 39.3464C49.5477 39.3464 54.6758 35.9113 57.0701 30.9043C57.2879 29.7432 57.4572 28.4852 57.4572 27.2274C57.4572 18.3982 50.8051 11.1414 42.1936 10.0527C34.5982 10.7543 28.6719 16.9954 28.6719 24.6632Z" fill="#E1E2E3"/>
<path fill-rule="evenodd" clip-rule="evenodd" d="M28.9863 24.5908C28.9863 32.6215 35.6142 39.1043 43.7665 39.1043C49.6204 39.1043 54.6758 35.7419 57.0701 30.8316C57.3845 29.6463 57.4572 28.4852 57.4572 27.2274C57.4572 18.4952 50.8051 11.2142 42.2664 10.0527C34.8403 10.8267 28.9863 16.9954 28.9863 24.5908Z" fill="#E4E4E5"/>
<path fill-rule="evenodd" clip-rule="evenodd" d="M29.3018 24.4215C29.3018 32.4764 35.8573 38.8626 43.9368 38.8626C49.6941 38.8626 54.7738 35.5968 57.1438 30.7589C57.3858 29.5739 57.4582 28.4852 57.4582 27.2274C57.4582 18.4952 50.8788 11.2142 42.3401 10.0527C34.986 10.8267 29.3018 16.9954 29.3018 24.4215Z" fill="#E4E4E5"/>
<path fill-rule="evenodd" clip-rule="evenodd" d="M29.543 24.3488C29.543 32.2344 36.0985 38.6448 44.0807 38.6448C49.7899 38.6448 54.773 35.3551 57.1433 30.5899C57.3853 29.5739 57.4577 28.4128 57.4577 27.2274C57.4577 18.4952 50.9756 11.3108 42.4362 10.0527C35.1549 10.8997 29.543 16.9227 29.543 24.3488Z" fill="#E8E9EA"/>
<path fill-rule="evenodd" clip-rule="evenodd" d="M29.8574 24.1794C29.8574 32.0651 36.3402 38.4028 44.2504 38.4028C49.8623 38.4028 54.7726 35.21 57.143 30.5172C57.385 29.5012 57.4574 28.4128 57.4574 27.2274C57.4574 18.5675 50.9753 11.3835 42.5086 10.0527C35.3966 10.8997 29.8574 16.9227 29.8574 24.1794Z" fill="#E8E9EA"/>
<path fill-rule="evenodd" clip-rule="evenodd" d="M30.1719 24.1063C30.1719 31.8468 36.4853 38.1603 44.3955 38.1603C50.0317 38.1603 54.7727 35.0399 57.143 30.444C57.3851 29.428 57.4574 28.3154 57.4574 27.227C57.4574 18.5671 51.047 11.383 42.581 10.125C35.6144 10.9959 30.1719 16.9222 30.1719 24.1063Z" fill="#EAEBEC"/>
<path fill-rule="evenodd" clip-rule="evenodd" d="M30.4863 23.9612C30.4863 31.6775 36.824 37.9428 44.5642 37.9428C50.1044 37.9428 54.8454 34.8948 57.143 30.3474C57.3851 29.331 57.4575 28.3154 57.4575 27.227C57.4575 18.6398 51.047 11.4554 42.6538 10.125C35.7838 11.0683 30.4863 16.8495 30.4863 23.9612Z" fill="#ECEDEE"/>
<path fill-rule="evenodd" clip-rule="evenodd" d="M30.7285 23.8649C30.7285 31.5327 37.042 37.7011 44.8071 37.7011C50.1773 37.7011 54.8456 34.6531 57.2159 30.275C57.3852 29.259 57.4579 28.243 57.4579 27.227C57.4579 18.6398 51.1202 11.5281 42.8236 10.125C35.9533 11.0686 30.7285 16.8499 30.7285 23.8649Z" fill="#EFEFF0"/>
<path fill-rule="evenodd" clip-rule="evenodd" d="M31.043 23.7195C31.043 31.2907 37.2841 37.459 44.9519 37.459C50.2493 37.459 54.8459 34.5077 57.2162 30.2023C57.3856 29.259 57.4583 28.243 57.4583 27.227C57.4583 18.7122 51.1206 11.5281 42.8966 10.125C36.1711 11.141 31.043 16.8495 31.043 23.7195Z" fill="#F1F1F2"/>
<path fill-rule="evenodd" clip-rule="evenodd" d="M31.3574 23.6486C31.3574 31.1471 37.5258 37.2427 45.1216 37.2427C50.3463 37.2427 54.9177 34.3402 57.2159 30.1314C57.3853 29.1881 57.458 28.2445 57.458 27.2285C57.458 18.7137 51.2176 11.6263 42.9929 10.1992C36.4132 11.1425 31.3574 16.851 31.3574 23.6486Z" fill="#F3F3F4"/>
<path fill-rule="evenodd" clip-rule="evenodd" d="M31.5986 23.4789C31.5986 30.9774 37.7673 37.0007 45.2658 37.0007C50.4189 37.0007 54.9172 34.1951 57.2154 29.9617C57.3848 29.1151 57.4575 28.1718 57.4575 27.2285C57.4575 18.7137 51.2891 11.699 43.0648 10.1992C36.582 11.2149 31.5986 16.7786 31.5986 23.4789Z" fill="#F3F3F4"/>
<path fill-rule="evenodd" clip-rule="evenodd" d="M31.9141 23.4065C31.9141 30.7599 38.0101 36.759 45.4358 36.759C50.4922 36.759 54.9182 34.0257 57.2888 29.8894C57.3854 29.0427 57.4581 28.1718 57.4581 27.2285C57.4581 18.8103 51.2898 11.7714 43.1382 10.1992C36.7278 11.3118 31.9141 16.7786 31.9141 23.4065Z" fill="#F5F6F6"/>
<path fill-rule="evenodd" clip-rule="evenodd" d="M32.2285 23.2615C32.2285 30.5909 38.2276 36.5415 45.5809 36.5415C50.564 36.5415 55.0151 33.8083 57.2888 29.8166C57.3855 28.9461 57.4582 28.1718 57.4582 27.2285C57.4582 18.8103 51.3625 11.7714 43.2109 10.1992C36.9698 11.3118 32.2285 16.6817 32.2285 23.2615Z" fill="#F8F8F8"/>
<path fill-rule="evenodd" clip-rule="evenodd" d="M32.4697 23.1648C32.4697 30.3492 38.3964 36.2998 45.7494 36.2998C50.6604 36.2998 55.0143 33.6389 57.288 29.7443C57.3846 28.8734 57.4573 28.0994 57.4573 27.2285C57.4573 18.883 51.4341 11.8441 43.3794 10.1992C37.2107 11.3846 32.4697 16.6817 32.4697 23.1648Z" fill="#F8F8F8"/>
<path fill-rule="evenodd" clip-rule="evenodd" d="M45.9195 36.0568C50.8052 36.0568 55.0146 33.4926 57.288 29.574C57.3846 28.8724 57.4574 28.0985 57.4574 27.2276C57.4574 18.8821 51.4341 11.8432 43.4518 10.2949C37.3562 11.3836 32.7842 16.6808 32.7842 23.0185C32.7842 30.2029 38.6381 36.0568 45.9195 36.0568Z" fill="white"/>
<path fill-rule="evenodd" clip-rule="evenodd" d="M55.7881 30.3478C55.7881 30.3478 56.5863 30.8316 56.9734 31.2184C56.9734 31.2184 57.4572 29.3315 57.2878 28.9447C57.2155 28.6303 55.7881 30.3478 55.7881 30.3478Z" fill="white"/>
<path fill-rule="evenodd" clip-rule="evenodd" d="M39.896 44.6434H40.6945C40.7672 44.5707 40.84 44.5707 40.9366 44.5707H41.5658C41.6385 44.498 41.7112 44.498 41.7112 44.498H42.1222C42.2677 44.498 42.3401 44.4253 42.5094 44.4253H42.5821C42.6548 44.4253 42.8241 44.4253 42.9931 44.3287H43.0659C43.2113 44.3287 43.3079 44.3287 43.3803 44.256H43.5257C43.6223 44.256 43.695 44.1833 43.7678 44.1833H43.9371C44.0098 44.1833 44.0819 44.1105 44.1791 44.1105H44.3246C44.3973 44.0139 44.4939 44.0139 44.566 43.9412H44.7114C44.9534 43.8685 45.2679 43.7961 45.5096 43.7237H45.5823C45.6796 43.6268 45.7516 43.6268 45.9213 43.5544H45.9933C46.066 43.4817 46.1388 43.4817 46.3078 43.409H46.3805C46.4532 43.3123 46.5498 43.3123 46.6225 43.3123C46.6952 43.2396 46.6952 43.2396 46.7679 43.2396C46.8646 43.1669 46.9373 43.1669 47.01 43.1669C47.1066 43.0942 47.1066 43.0942 47.1793 43.0942C47.252 43.0218 47.3248 43.0218 47.4938 42.9249C47.6392 42.8522 47.7358 42.7794 47.8809 42.7794C47.8809 42.7071 47.9775 42.7071 47.9775 42.7071C48.0502 42.6101 48.1229 42.6101 48.1953 42.5377C48.292 42.5377 48.2919 42.5377 48.3647 42.465C48.4374 42.465 48.5101 42.3923 48.6067 42.3923C48.6067 42.2954 48.6794 42.2954 48.6794 42.2954C48.7521 42.223 48.8249 42.223 48.9215 42.1503C48.9942 42.1503 48.9942 42.0775 49.0669 42.0775C49.1635 42.0775 49.2362 42.0048 49.3089 41.9082L49.3817 41.8355C49.4783 41.8355 49.551 41.7628 49.6237 41.6901H49.6964C49.8658 41.5934 49.9385 41.5207 50.0351 41.448C50.1078 41.448 50.1078 41.3753 50.1078 41.3753C50.1805 41.2787 50.2526 41.2787 50.3498 41.206C50.4226 41.206 50.4226 41.1333 50.4953 41.1333C50.5673 41.0605 50.5673 40.9882 50.6646 40.9882C50.7367 40.8912 50.7367 40.8912 50.8094 40.8912C50.8821 40.8185 50.8821 40.7461 50.9794 40.7461C51.0514 40.6734 51.0514 40.6734 51.1241 40.5765C51.2214 40.5765 51.2214 40.5041 51.2935 40.4314C51.3662 40.4314 51.3662 40.4314 51.4389 40.3586C51.5355 40.2859 51.5355 40.1893 51.6082 40.1893L51.6809 40.1166C51.8503 40.0439 51.923 39.9715 51.9954 39.8022C51.9954 39.8022 52.092 39.8022 52.092 39.7295C52.1647 39.7295 52.2374 39.6571 52.3098 39.5601C52.3098 39.5601 52.3098 39.4874 52.4064 39.4874C52.4791 39.4147 52.4791 39.3423 52.5518 39.2699C52.5518 39.2699 52.6246 39.1733 52.7212 39.1733C52.7212 39.1006 52.7939 39.0279 52.8666 39.0279C52.8666 38.9552 52.8666 38.9552 52.9393 38.8586C53.0359 38.7858 53.0359 38.7858 53.1086 38.7131C53.1086 38.6404 53.1814 38.6404 53.1814 38.5438C53.278 38.5438 53.3507 38.4711 53.3507 38.3984L53.4234 38.3256C53.5927 38.1563 53.5927 38.0836 53.6655 38.0116C53.7382 37.9388 53.7382 37.9388 53.8109 37.8419C53.8109 37.8419 53.9075 37.7692 53.9802 37.6968C53.9802 37.6241 53.9802 37.6241 54.0529 37.5514C54.0529 37.4547 54.1495 37.4547 54.2223 37.382C54.2223 37.3093 54.2223 37.3093 54.295 37.2366C54.295 37.14 54.3677 37.0673 54.3677 37.0673C54.4643 36.9946 54.4643 36.9946 54.537 36.9222C54.537 36.8252 54.6097 36.7525 54.6097 36.6801C54.6825 36.6801 54.6825 36.6074 54.6825 36.6074C54.7791 36.5347 54.7791 36.4377 54.8518 36.3654C54.9238 36.2927 54.9238 36.2927 54.9238 36.2199C55.0211 36.123 55.0938 36.0506 55.1662 35.9055V35.8089C55.2389 35.7362 55.2389 35.6635 55.3355 35.5911C55.3355 35.5187 55.4083 35.5187 55.4083 35.4217C55.4083 35.349 55.481 35.2763 55.481 35.2043C55.553 35.2043 55.553 35.1073 55.553 35.0346C55.6503 34.9622 55.6503 34.9622 55.723 34.8895C55.723 34.7926 55.723 34.7926 55.7951 34.7202C55.7951 34.6475 55.7951 34.5748 55.8678 34.5024C55.8678 34.4058 55.9651 34.4058 55.9651 34.333C55.9651 34.2603 56.0371 34.1879 56.0371 34.091C56.0371 34.091 56.0371 34.0183 56.1098 34.0183C56.2071 33.8732 56.2071 33.8008 56.2798 33.6315V33.5588C56.3519 33.486 56.3519 33.3167 56.3519 33.2443C56.4246 33.2443 56.4246 33.1716 56.4246 33.075C56.5212 33.0023 56.5212 33.0023 56.5212 32.8572C56.5212 32.8572 56.5939 32.7845 56.5939 32.6878C56.5939 32.6878 56.5939 32.5424 56.6666 32.5424C56.6666 32.4697 56.6666 32.3731 56.7393 32.3004V32.1553C56.7393 32.0583 56.836 31.9859 56.836 31.9859C56.836 31.9132 56.836 31.7681 56.9087 31.6712V31.5261C56.9087 31.4534 56.9814 31.284 56.9814 31.2117C54.8531 29.5668 52.095 28.7205 47.5718 29.0346C41.5727 29.4944 39.1051 32.058 32.3082 32.2273C30.8081 32.2273 25.1238 32.1549 22.3418 28.8652C22.4145 28.8652 22.4145 28.9379 22.4145 28.9379V29.5671C22.5111 29.6399 22.5111 29.7365 22.5111 29.8089V29.9543C22.5111 30.0512 22.5111 30.1236 22.5835 30.1963V30.4384C22.5835 30.5111 22.6562 30.5838 22.6562 30.6562V30.8255C22.6562 30.8979 22.7532 30.9706 22.7532 31.0672V31.2123C22.7532 31.285 22.8256 31.3578 22.8256 31.4544V31.6722C22.8979 31.6722 22.8979 31.7691 22.8979 31.9142C22.9707 31.9142 22.9707 31.9869 22.9707 32.0593C22.9707 32.1563 23.0676 32.2287 23.0676 32.3014V32.4707C23.1403 32.5434 23.1403 32.6161 23.2127 32.6885V32.8578C23.2854 32.9306 23.2854 33.0757 23.382 33.1723V33.245C23.4544 33.3177 23.4544 33.487 23.5271 33.6321V33.7045C23.6241 33.8015 23.6241 33.8742 23.6965 34.0189C23.6965 34.0189 23.6965 34.0917 23.7692 34.0917C23.7692 34.1886 23.7692 34.261 23.8419 34.3337C23.8419 34.4064 23.8419 34.503 23.9388 34.5757C23.9388 34.6485 24.0112 34.6485 24.0112 34.7212C24.0839 34.7936 24.0839 34.8905 24.0839 34.9632C24.1563 34.9632 24.1563 35.0356 24.1563 35.1083L24.3257 35.2777C24.3257 35.3504 24.3257 35.4231 24.3984 35.5197C24.3984 35.5197 24.4707 35.5921 24.4707 35.6648C24.5677 35.6648 24.5677 35.7375 24.5677 35.8102C24.6404 35.9068 24.6404 35.9796 24.7128 35.9796C24.7128 36.0523 24.8097 36.1246 24.8097 36.2216C24.8825 36.2216 24.8825 36.2943 24.8825 36.367C24.9548 36.4394 24.9548 36.4394 25.0276 36.5364C25.0276 36.6091 25.1245 36.6818 25.1245 36.6818C25.1969 36.7542 25.1969 36.8269 25.2696 36.9238L25.342 36.9962C25.342 37.0689 25.4386 37.1416 25.5113 37.2383C25.5113 37.2383 25.5113 37.311 25.584 37.3837C25.681 37.4564 25.681 37.4564 25.7534 37.553C25.7534 37.6257 25.7534 37.6257 25.8257 37.6985C25.8985 37.7708 25.8985 37.7708 25.9951 37.8435C25.9951 37.9405 26.0678 38.0132 26.0678 38.0132C26.1405 38.0856 26.2132 38.1583 26.2132 38.2553C26.3098 38.2553 26.3098 38.3276 26.3098 38.3276C26.3826 38.4004 26.4553 38.4731 26.4553 38.5455C26.528 38.5455 26.528 38.6421 26.6246 38.6421C26.697 38.7148 26.697 38.7875 26.7697 38.8599C26.7697 38.8599 26.8666 38.8599 26.8666 38.9565C26.9394 39.0292 27.0841 39.1019 27.1811 39.2709C27.2538 39.3436 27.3262 39.416 27.4955 39.5611C27.5679 39.6581 27.6406 39.7305 27.7376 39.8032C27.8103 39.8759 27.8103 39.8759 27.8826 39.9728C27.8826 39.9728 27.9554 40.0452 28.052 40.1179C28.1247 40.1179 28.1247 40.1906 28.1974 40.1906C28.1974 40.2873 28.2698 40.2873 28.3664 40.36C28.3664 40.4327 28.4391 40.4327 28.5118 40.5054L28.6812 40.6747C28.6812 40.6747 28.7535 40.6747 28.8263 40.7474C28.8263 40.7474 28.9232 40.8198 28.9956 40.8925C28.9956 40.8925 29.0683 40.9895 29.141 40.9895C29.141 41.0619 29.2376 41.0619 29.3104 41.1346C29.3831 41.1346 29.3831 41.2073 29.4558 41.2073C29.5524 41.28 29.5524 41.28 29.6251 41.3766C29.6975 41.4494 29.6975 41.4493 29.7945 41.4493C29.8672 41.5221 29.9399 41.5221 29.9399 41.5948C30.0123 41.5948 30.1092 41.6914 30.1092 41.6914C30.1819 41.7641 30.2543 41.7641 30.327 41.8368C30.327 41.8368 30.424 41.9095 30.4964 41.9095C30.5691 42.0062 30.5691 42.0062 30.6657 42.0789C30.7384 42.0789 30.7384 42.0789 30.8108 42.1516C30.8832 42.2243 30.9801 42.2243 31.0528 42.2243C31.0528 42.2967 31.1255 42.2967 31.1979 42.3936C31.2945 42.3936 31.2945 42.3936 31.3673 42.4663C31.4396 42.4663 31.5124 42.5391 31.5124 42.5391C31.609 42.6114 31.6817 42.6114 31.7544 42.6114L31.9237 42.7808C31.9964 42.7808 32.0692 42.7808 32.1658 42.8535C32.1658 42.8535 32.2385 42.8535 32.3112 42.9262C32.3839 42.9262 32.4805 43.0232 32.5533 43.0232C32.5533 43.0955 32.626 43.0955 32.626 43.0955C32.7953 43.1683 32.9397 43.1682 33.037 43.241L33.1097 43.3137C33.1824 43.3137 33.3518 43.4103 33.4242 43.4103C33.4962 43.4103 33.4962 43.483 33.5689 43.483C33.6662 43.5557 33.7383 43.5557 33.811 43.5557C33.9083 43.5557 33.981 43.6281 33.981 43.6281C34.0537 43.6281 34.1257 43.6281 34.2223 43.7251H34.3678C34.4405 43.7978 34.5371 43.7978 34.6098 43.8702H34.7792C34.8519 43.8702 34.9246 43.9429 34.997 43.9429C35.0936 43.9429 35.1663 43.9429 35.1663 44.0156C35.239 44.0156 35.3117 44.0156 35.4083 44.1122H35.6262C35.6262 44.1122 35.7228 44.1849 35.7955 44.1849H36.0375C36.1102 44.1849 36.183 44.2576 36.2796 44.2576C36.3523 44.2576 36.3523 44.2576 36.425 44.3303H36.9091C36.9091 44.427 36.9818 44.427 37.0545 44.427H37.2966C37.3693 44.427 37.4659 44.4997 37.5386 44.4997H38.1681C38.2409 44.5724 38.3375 44.5724 38.4102 44.5724H38.797C38.8943 44.5724 38.967 44.5724 39.0391 44.6451H39.4265C39.5816 44.6434 39.7267 44.6434 39.896 44.6434Z" fill="#142A60"/>
<path fill-rule="evenodd" clip-rule="evenodd" d="M22.8184 29.3318C24.0037 37.7739 31.2847 44.3294 40.1378 44.3294C47.8063 44.3294 54.2891 39.4187 56.5867 32.6215C56.7322 32.162 56.9012 31.6782 56.9739 31.2183C54.8456 29.5735 52.0874 28.7272 47.5643 29.0413C41.5652 29.5011 39.0976 32.0647 32.3007 32.234C30.8733 32.2343 25.7452 32.162 22.8184 29.3318Z" fill="#162D63"/>
<path fill-rule="evenodd" clip-rule="evenodd" d="M23.375 29.8152C24.7054 37.8462 31.8413 43.9419 40.38 43.9419C47.8792 43.9419 54.2896 39.1767 56.6596 32.4761C56.8289 32.065 56.9017 31.6055 56.974 31.2183C54.8458 29.5735 52.0876 28.7272 47.5644 29.0413C41.5654 29.5011 39.0978 32.0647 32.3009 32.234C30.9704 32.234 26.3018 32.1616 23.375 29.8152Z" fill="#162E65"/>
<path fill-rule="evenodd" clip-rule="evenodd" d="M23.835 30.2023C25.4313 37.8459 32.3016 43.6275 40.5256 43.6275C48.0486 43.6275 54.3624 38.9589 56.66 32.3794C56.8294 31.9926 56.9021 31.6055 56.9745 31.2183C54.8462 29.5735 52.088 28.7272 47.5649 29.0413C41.5658 29.5011 39.0982 32.0647 32.3013 32.234C31.0432 32.234 26.7618 32.1616 23.835 30.2023Z" fill="#173067"/>
<path fill-rule="evenodd" clip-rule="evenodd" d="M24.3906 30.5171C26.1321 37.8462 32.8573 43.3134 40.7668 43.3134C48.1205 43.3134 54.3616 38.7172 56.732 32.2343C56.8286 31.9202 56.9013 31.5331 56.974 31.2183C54.8457 29.5735 52.0876 28.7272 47.5644 29.0413C41.5653 29.5011 39.0977 32.0647 32.3008 32.234C31.1155 32.2343 27.2451 32.162 24.3906 30.5171Z" fill="#183269"/>
<path fill-rule="evenodd" clip-rule="evenodd" d="M24.875 30.8315C26.8585 37.7735 33.3417 42.9262 41.0091 42.9262C48.2905 42.9262 54.3622 38.4754 56.7322 32.162C56.8288 31.8475 56.9016 31.5328 56.9743 31.2183C54.846 29.5735 52.0878 28.7272 47.5647 29.0413C41.5656 29.5011 39.098 32.0647 32.3011 32.234C31.1881 32.2343 27.7291 32.162 24.875 30.8315Z" fill="#19346C"/>
<path fill-rule="evenodd" clip-rule="evenodd" d="M25.4307 30.9766C27.4869 37.7739 33.8004 42.6118 41.2507 42.6118C48.3627 42.6118 54.4584 38.258 56.8287 32.065C56.9014 31.7748 56.9014 31.4604 56.9741 31.2183C54.8458 29.5735 52.0877 28.7272 47.5645 29.0413C41.5655 29.5011 39.0978 32.0647 32.3009 32.234C31.2846 32.2343 28.1161 32.162 25.4307 30.9766Z" fill="#1A376F"/>
<path fill-rule="evenodd" clip-rule="evenodd" d="M25.9873 31.2183C28.1163 37.7012 34.285 42.2971 41.4687 42.2971C48.508 42.2971 54.4585 38.0156 56.8289 31.9199C56.9016 31.6779 56.9743 31.4601 56.9743 31.2183C54.846 29.5735 52.0879 28.7272 47.5647 29.0413C41.5656 29.5011 39.098 32.0647 32.3011 32.234C31.3575 32.2343 28.5031 32.162 25.9873 31.2183Z" fill="#1A3870"/>
<path fill-rule="evenodd" clip-rule="evenodd" d="M26.4473 31.4604C28.7452 37.5561 34.7682 42.0072 41.7108 42.0072C48.605 42.0072 54.459 37.7739 56.829 31.8475C56.9017 31.6055 56.9744 31.3638 56.9744 31.2183C54.8461 29.5735 52.088 28.7272 47.5648 29.0413C41.5657 29.5011 39.0981 32.0647 32.3012 32.234C31.3576 32.2343 28.9146 32.2343 26.4473 31.4604Z" fill="#1B3972"/>
<path fill-rule="evenodd" clip-rule="evenodd" d="M27.0029 31.5328C29.3736 37.4594 35.1545 41.5958 41.9521 41.5958C48.7496 41.5958 54.5309 37.5561 56.9009 31.6779C56.9009 31.5328 56.9736 31.3634 56.9736 31.2183C54.8453 29.5735 52.0872 28.7272 47.564 29.0413C41.5649 29.5011 39.0973 32.0647 32.3004 32.234C31.4295 32.234 29.2282 32.234 27.0029 31.5328Z" fill="#1B3C75"/>
<path fill-rule="evenodd" clip-rule="evenodd" d="M27.5596 31.6782C29.9302 37.3871 35.6149 41.2814 42.1943 41.2814C48.8225 41.2814 54.531 37.3143 56.9014 31.6055C56.9014 31.4601 56.9741 31.2911 56.9741 31.2183C54.8458 29.5735 52.0877 28.7272 47.5645 29.0413C41.5654 29.5011 39.0978 32.0647 32.3009 32.234C31.5024 32.2343 29.6158 32.2343 27.5596 31.6782Z" fill="#1C3E77"/>
<path fill-rule="evenodd" clip-rule="evenodd" d="M28.1162 31.8475C30.5593 37.2416 36.0988 40.9912 42.4365 40.9912C48.992 40.9912 54.6039 37.0723 56.9015 31.4604C56.9742 31.3638 56.9742 31.2911 56.9742 31.2183C54.846 29.5735 52.0878 28.7272 47.5646 29.0413C41.5656 29.5011 39.098 32.0647 32.3011 32.234C31.5992 32.2343 29.9304 32.2343 28.1162 31.8475Z" fill="#1C407A"/>
<path fill-rule="evenodd" clip-rule="evenodd" d="M28.6719 31.9202C31.1149 37.0726 36.4851 40.6768 42.6535 40.6768C49.0639 40.6768 54.6031 36.8306 56.9734 31.3638V31.2183C54.8452 29.5735 52.087 28.7272 47.5638 29.0413C41.5648 29.5011 39.0972 32.0647 32.3003 32.234C31.6714 32.2343 30.2444 32.2343 28.6719 31.9202Z" fill="#1D427D"/>
<path fill-rule="evenodd" clip-rule="evenodd" d="M29.2285 31.9926C31.7443 36.9272 36.8967 40.362 42.896 40.362C49.2337 40.362 54.6039 36.6128 56.9739 31.2183C54.8456 29.5735 52.0875 28.7272 47.5643 29.0413C41.5653 29.5011 39.0977 32.0647 32.3008 32.234C31.7443 32.2343 30.5589 32.2343 29.2285 31.9926Z" fill="#1E447F"/>
<path fill-rule="evenodd" clip-rule="evenodd" d="M29.7852 32.065C32.3012 36.7579 37.3567 39.9752 43.1379 39.9752C49.3063 39.9752 54.6038 36.3711 56.9741 31.2183C54.8458 29.5735 52.0877 28.7272 47.5645 29.0413C41.5654 29.5011 39.0978 32.0647 32.3009 32.234C31.8411 32.2343 30.8735 32.2343 29.7852 32.065Z" fill="#1E4682"/>
<path fill-rule="evenodd" clip-rule="evenodd" d="M30.2441 32.1623C32.8569 36.6131 37.7672 39.6611 43.3794 39.6611C49.3785 39.6611 54.6036 36.2259 56.9736 31.1459C54.7726 29.5738 51.9905 28.7271 47.5639 29.0415C41.5649 29.5014 39.0973 32.065 32.3004 32.2343C31.6143 32.238 30.9283 32.214 30.2441 32.1623Z" fill="#1E4884"/>
<path fill-rule="evenodd" clip-rule="evenodd" d="M30.8008 32.1619C33.4135 36.4434 38.1545 39.3463 43.6213 39.3463C49.4753 39.3463 54.5307 35.9839 56.901 31.1459C54.7727 29.5738 51.9907 28.7271 47.5641 29.0415C41.5651 29.5014 39.0974 32.065 32.3005 32.2343C31.9858 32.2343 31.502 32.2343 30.8008 32.1619Z" fill="#1F4A88"/>
<path fill-rule="evenodd" clip-rule="evenodd" d="M31.3574 32.2343C33.9701 36.2983 38.5421 39.0319 43.8635 39.0319C49.5481 39.0319 54.4585 35.8149 56.9015 31.1459C54.7732 29.5738 51.9912 28.7271 47.5646 29.0415C41.5656 29.5014 39.0979 32.065 32.301 32.2343H31.3574Z" fill="#1F4B89"/>
<path fill-rule="evenodd" clip-rule="evenodd" d="M31.9141 32.2343C34.5264 36.1286 39.0254 38.6447 44.0812 38.6447C49.6213 38.6447 54.459 35.5967 56.9017 31.1459C54.7734 29.5738 51.9913 28.7271 47.5648 29.0415C41.5657 29.5014 39.0981 32.065 32.3012 32.2343H31.9141Z" fill="#204E8C"/>
<path fill-rule="evenodd" clip-rule="evenodd" d="M32.4697 32.2347C35.0818 35.9116 39.4117 38.3304 44.3227 38.3304C49.6929 38.3304 54.3612 35.4278 56.8281 31.0736C54.676 29.5739 51.9178 28.7275 47.564 29.0416C41.6373 29.5018 39.0973 31.993 32.4697 32.2347Z" fill="#20508F"/>
<path fill-rule="evenodd" clip-rule="evenodd" d="M33.0264 32.1624C35.6145 35.7423 39.8239 38.0163 44.5643 38.0163C47.0345 38.019 49.4632 37.3807 51.6128 36.1638C53.7625 34.9469 55.5597 33.193 56.8286 31.0736C54.6765 29.5739 51.9183 28.7275 47.5645 29.0416C41.8068 29.5018 39.2668 31.9206 33.0264 32.1624Z" fill="#205291"/>
<path fill-rule="evenodd" clip-rule="evenodd" d="M33.5586 32.1624C36.0986 35.5248 40.2107 37.7019 44.8073 37.7019C49.8631 37.7019 54.2896 35.0407 56.7323 30.977C54.6041 29.5018 51.9186 28.7276 47.5648 29.042C41.9529 29.5018 39.4125 31.7752 33.5586 32.1624Z" fill="#205393"/>
<path fill-rule="evenodd" clip-rule="evenodd" d="M34.1143 32.0657C36.6543 35.2827 40.5247 37.3875 45.0485 37.3875C49.935 37.3875 54.2888 34.799 56.7319 30.977C54.6036 29.5018 51.8454 28.7275 47.5643 29.042C42.1211 29.5022 39.5811 31.6062 34.1143 32.0657Z" fill="#215596"/>
<path fill-rule="evenodd" clip-rule="evenodd" d="M34.5986 32.0657C37.1386 35.1137 41.0091 37.0003 45.2663 37.0003C47.5129 37.0032 49.7259 36.4556 51.712 35.4057C53.6981 34.3557 55.3967 32.8351 56.6594 30.977C54.5311 29.5018 51.8457 28.7276 47.5642 29.042C42.2671 29.4295 39.7268 31.4611 34.5986 32.0657Z" fill="#215798"/>
<path fill-rule="evenodd" clip-rule="evenodd" d="M35.1553 31.9936C37.6714 34.8962 41.3237 36.6864 45.5085 36.6864C50.1051 36.6864 54.1445 34.4124 56.5872 30.9049C54.5316 29.5021 51.7496 28.7278 47.5647 29.0422C42.509 29.4297 39.969 31.292 35.1553 31.9936Z" fill="#215A9B"/>
<path fill-rule="evenodd" clip-rule="evenodd" d="M35.7109 31.9209C38.1543 34.6541 41.71 36.3717 45.7494 36.3717C50.1766 36.3717 54.1434 34.1946 56.5864 30.9049C54.4581 29.5021 51.7488 28.7278 47.5639 29.0422C42.6536 29.4294 40.1375 31.219 35.7109 31.9209Z" fill="#215C9F"/>
<path fill-rule="evenodd" clip-rule="evenodd" d="M45.9196 36.0574C50.2489 36.0574 54.0472 34.0254 56.5139 30.8326C54.3617 29.5022 51.6762 28.7283 47.5641 29.0424C42.8955 29.4295 40.3794 31.0743 36.2676 31.7756C38.6382 34.4125 42.1212 36.0574 45.9196 36.0574Z" fill="#215DA0"/>
<path fill-rule="evenodd" clip-rule="evenodd" d="M57.385 25.3656C57.385 25.2932 57.385 25.1235 57.2884 25.0511V24.8818V24.664C57.2884 24.5916 57.2157 24.4947 57.2157 24.4219V24.2768C57.143 24.1799 57.1429 24.1075 57.1429 24.0348V23.7927C57.1429 23.7204 57.0702 23.7204 57.0702 23.5753V23.4059C56.9736 23.3332 56.9736 23.2605 56.9736 23.1639C56.9736 23.1639 56.9009 23.0912 56.9009 23.0185V22.7764C56.8282 22.7037 56.8282 22.7037 56.8282 22.631C56.8282 22.5586 56.8282 22.462 56.7316 22.3889V22.2438C56.6589 22.1469 56.6589 22.0745 56.6589 22.0018C56.5861 21.9294 56.5861 21.8328 56.5861 21.8328C56.5861 21.7601 56.5134 21.6874 56.5134 21.615C56.5134 21.5423 56.5134 21.4453 56.4168 21.4453C56.4168 21.3729 56.3441 21.3002 56.3441 21.2278C56.3441 21.1309 56.3441 21.0585 56.272 21.0585C56.272 20.9861 56.272 20.9134 56.1993 20.841V20.6717C56.1021 20.5993 56.102 20.5266 56.0293 20.4297V20.2846C55.9573 20.2118 55.9573 20.1152 55.86 20.0425C55.86 20.0425 55.7873 19.9698 55.7873 19.8971C55.7873 19.8244 55.7152 19.8244 55.7152 19.7278C55.6425 19.5827 55.5452 19.5103 55.5452 19.3406C55.4732 19.2682 55.4005 19.0986 55.4005 19.0262C55.3278 18.9535 55.2311 18.8811 55.2311 18.8084C55.2311 18.7114 55.1584 18.7114 55.1584 18.639C55.1584 18.5663 55.0857 18.5663 55.0857 18.4939C55.013 18.397 55.013 18.3246 54.9157 18.2519L54.8437 18.1795C54.771 18.1071 54.771 18.0102 54.6743 17.9375C54.6743 17.8651 54.6743 17.8651 54.6016 17.7924C54.6016 17.6954 54.5289 17.6954 54.5289 17.623C54.4562 17.5507 54.4562 17.4779 54.3596 17.4779C54.3596 17.381 54.2869 17.3086 54.2869 17.3086C54.2142 17.2362 54.2141 17.1635 54.1414 17.0908C54.1414 17.0908 54.0448 16.9942 54.0448 16.9215C53.9721 16.9215 53.9721 16.8488 53.8994 16.7764C53.8994 16.6794 53.8028 16.6794 53.8028 16.607C53.7301 16.5347 53.6573 16.5347 53.6573 16.4619C53.5846 16.365 53.5846 16.365 53.488 16.2926C53.488 16.2926 53.4153 16.2202 53.4153 16.1475C53.3426 16.0748 53.3426 16.0748 53.2699 15.9782C53.2699 15.9782 53.1732 15.9055 53.1005 15.8331C53.1005 15.8331 53.0278 15.7604 53.0278 15.6638C52.9312 15.6638 52.8585 15.5914 52.8585 15.5187C52.7858 15.5187 52.7858 15.4459 52.7131 15.3493C52.7131 15.3493 52.6164 15.2769 52.5437 15.2769C52.5437 15.2042 52.471 15.2042 52.471 15.1319L52.3017 14.9625C52.229 14.8901 52.1563 14.8174 52.0839 14.8174C52.0839 14.7447 52.0839 14.7447 51.9872 14.6481C51.9145 14.5754 51.7452 14.5027 51.6728 14.4303C51.6004 14.3579 51.5274 14.1886 51.3584 14.1159L51.2857 14.0431C51.2136 13.9462 51.1163 13.9462 51.1163 13.8738C51.0436 13.8738 50.9716 13.8011 50.8743 13.7287C50.8743 13.7287 50.8016 13.6318 50.7289 13.6318C50.7289 13.559 50.6568 13.559 50.6568 13.4867C50.5595 13.4867 50.4875 13.4139 50.4148 13.4139C50.4148 13.3412 50.3421 13.3412 50.3421 13.2446C50.2448 13.2446 50.1727 13.1719 50.1 13.1719C50.1 13.0992 50.0273 13.0992 49.9307 13.0268C49.858 13.0268 49.858 12.9299 49.7853 12.9299C49.6886 12.8571 49.6159 12.8571 49.6159 12.7844C49.5432 12.7844 49.4705 12.7117 49.3739 12.7117C49.3739 12.6151 49.3012 12.6151 49.3012 12.5427C49.2284 12.5427 49.1557 12.47 49.0591 12.47C48.9864 12.3976 48.9864 12.3976 48.9137 12.3976C48.8171 12.3252 48.7444 12.3252 48.7444 12.2283C48.6716 12.2283 48.5989 12.1556 48.5989 12.1556C48.5023 12.1556 48.4296 12.0832 48.3569 12.0832C48.2842 12.0105 48.2842 12.0105 48.1875 12.0105C48.1148 11.9135 48.0421 11.9135 47.9697 11.8411L47.8731 11.7684C47.7277 11.7684 47.7277 11.6957 47.6311 11.6957C47.5584 11.6233 47.4856 11.6233 47.4856 11.6233C47.4129 11.5264 47.3163 11.5264 47.2436 11.5264L47.0982 11.3813C47.0016 11.3813 46.9288 11.3813 46.8561 11.3086C46.8561 11.3086 46.7595 11.3086 46.6868 11.2116C46.4447 11.1389 46.2269 11.0662 45.9132 10.9941C45.9132 10.8972 45.8159 10.8972 45.8159 10.8972C45.7432 10.8245 45.5738 10.8245 45.5015 10.8245C45.5015 10.8245 45.4287 10.7521 45.356 10.7521C45.2594 10.7521 45.1867 10.7521 45.1867 10.6797H44.9446C44.8719 10.607 44.7999 10.607 44.7026 10.607C44.7026 10.5104 44.6306 10.5104 44.5572 10.5104C44.4851 10.5104 44.3885 10.5104 44.3158 10.4377H44.1704C44.0731 10.4377 44.001 10.365 43.9283 10.365C43.8556 10.365 43.759 10.2922 43.6863 10.2922H43.5169C43.4442 10.2922 43.3715 10.1956 43.2991 10.1956H43.0571C43.0571 10.1956 42.9844 10.1956 42.8877 10.1229H42.6457C42.573 10.1229 42.5003 10.0502 42.5003 10.0502H42.0162C41.9435 10.0502 41.8708 9.97781 41.7984 9.97781H41.3146H41.1453C41.0726 9.97781 40.9998 9.97781 40.9275 9.88086H40.4437H38.8716C38.7743 9.88086 38.7022 9.97781 38.6295 9.97781H38.1458H38.0003C37.9037 9.97781 37.831 9.97781 37.7583 10.0502H37.2018L37.1291 10.1229C37.0325 10.1229 36.887 10.1229 36.8147 10.1956H36.4033C36.3306 10.2922 36.2579 10.2922 36.2579 10.2922H36.0158C35.9431 10.365 35.8465 10.365 35.8465 10.365C35.701 10.365 35.6044 10.4377 35.532 10.4377H35.3866C35.29 10.5104 35.2173 10.5104 35.1446 10.5104H35.0719C34.9025 10.607 34.7574 10.6797 34.6608 10.6797H34.5881C34.5154 10.7521 34.346 10.7521 34.2743 10.8248H34.1043C34.0323 10.8248 33.9596 10.8975 33.8872 10.8975C33.7899 10.9945 33.7899 10.9945 33.7172 10.9945C33.6451 10.9945 33.5479 11.0669 33.4751 11.0669C33.4751 11.0669 33.4031 11.0669 33.3304 11.1396C33.2331 11.1396 33.161 11.2123 33.161 11.2123C33.0883 11.2123 33.0156 11.3092 33.0156 11.3092C32.9183 11.3092 32.8463 11.3819 32.7012 11.3819C32.7012 11.3819 32.6046 11.3819 32.6046 11.4543C32.4591 11.527 32.3625 11.527 32.2901 11.6237H32.1447C32.0481 11.696 31.9754 11.7688 31.9027 11.7688C31.8303 11.7688 31.8303 11.8415 31.7333 11.8415C31.6606 11.8415 31.5879 11.9139 31.5879 12.0108H31.4186C31.3462 12.0835 31.2731 12.0835 31.1765 12.1559C31.1041 12.1559 31.1041 12.2286 31.0314 12.2286C30.9587 12.3256 30.8621 12.3256 30.8621 12.3979H30.717C30.6443 12.4703 30.5477 12.5434 30.475 12.5434C30.475 12.6158 30.4026 12.6158 30.4026 12.6158C30.2858 12.6795 30.1797 12.7612 30.0881 12.8578C29.9912 12.8578 29.9912 12.8578 29.9912 12.9305C29.9188 12.9305 29.7737 13.0275 29.6768 13.0999L29.6044 13.1726C29.5317 13.1726 29.4351 13.2453 29.3623 13.3419L29.2896 13.4146C29.2169 13.4146 29.1203 13.4873 29.0476 13.5597L28.9749 13.6324C28.9025 13.7294 28.8055 13.7294 28.8055 13.8018C28.7328 13.8018 28.6604 13.8745 28.6604 13.8745C28.5635 13.9468 28.4911 14.0438 28.4184 14.0438C28.4184 14.1165 28.3457 14.1165 28.3457 14.1165C28.2491 14.1892 28.1767 14.2616 28.0312 14.4309V14.5037C27.8619 14.5037 27.8619 14.5764 27.7895 14.6491C27.7168 14.7457 27.7168 14.7457 27.6199 14.7457C27.6199 14.8184 27.5475 14.8911 27.4748 14.9635C27.4748 14.9635 27.3778 14.9635 27.3778 15.0605L27.2327 15.2056C27.16 15.2783 27.16 15.2783 27.0631 15.2783C26.9907 15.3507 26.9907 15.4476 26.918 15.5203L26.8452 15.593C26.7483 15.6654 26.6759 15.7624 26.6032 15.8351C26.6032 15.8351 26.6032 15.9075 26.5066 15.9075C26.4339 15.9802 26.3612 16.0768 26.2888 16.2219C26.2888 16.2219 26.2888 16.2943 26.1922 16.2943C26.1922 16.3667 26.1194 16.4636 26.0467 16.5363L25.974 16.6087C25.8774 16.6814 25.8774 16.778 25.8047 16.8507L25.7323 16.9235C25.6596 16.9962 25.6596 17.0928 25.563 17.1655L25.4903 17.2379C25.4175 17.3103 25.4175 17.383 25.3209 17.4799C25.3209 17.4799 25.3209 17.5527 25.2485 17.5527C25.1758 17.6977 25.1758 17.7947 25.1034 17.8671L25.0065 17.9395C24.9338 18.0118 24.9338 18.1815 24.8614 18.2539C24.8614 18.2539 24.7887 18.2539 24.7887 18.3266C24.7887 18.3993 24.6917 18.4959 24.6193 18.5687C24.6193 18.6414 24.6193 18.6414 24.5466 18.7137C24.5466 18.8107 24.4497 18.8831 24.4497 18.9558C24.3773 18.9558 24.3773 19.0285 24.3773 19.0285C24.3046 19.1009 24.3046 19.1978 24.2319 19.2706C24.2319 19.3429 24.2319 19.3429 24.1349 19.4156C24.1349 19.5126 24.0625 19.585 24.0625 19.6574L23.9898 19.7301C23.9898 19.8994 23.9174 19.9721 23.8205 20.0445V20.1172C23.7478 20.2866 23.7478 20.3589 23.6751 20.5283C23.6751 20.5283 23.6751 20.601 23.6027 20.601C23.6027 20.6734 23.5057 20.7461 23.5057 20.843C23.5057 20.9157 23.5057 20.9157 23.433 20.9881C23.433 21.0605 23.433 21.1332 23.3606 21.2302C23.3606 21.3026 23.3606 21.3026 23.2637 21.3753V21.6173C23.191 21.6173 23.191 21.6897 23.191 21.7624C23.191 21.8351 23.1186 21.9317 23.1186 22.0041C23.1186 22.0768 23.0459 22.0768 23.0459 22.1492C23.0459 22.2462 22.9489 22.3913 22.9489 22.464V22.5609C22.8762 22.6333 22.8762 22.7784 22.8038 22.9477V23.0205C22.8038 23.0932 22.8038 23.1659 22.7314 23.2625C24.9324 24.8107 27.7145 25.6813 32.2138 25.3669C38.2128 24.8831 40.6798 22.3916 47.4046 22.2465C48.9771 22.1496 54.5893 22.2465 57.3707 25.4393C57.385 25.4379 57.385 25.4379 57.385 25.3656Z" fill="#A81C22"/>
<path fill-rule="evenodd" clip-rule="evenodd" d="M40.4527 9.88477H40.1383C31.7447 9.88477 24.8024 15.666 23.0605 23.4792C25.1892 24.8824 27.9466 25.6802 32.2284 25.3661C38.2275 24.8824 40.6944 22.3909 47.4193 22.2458C48.9918 22.1488 54.604 22.2458 57.3854 25.4385C56.5145 16.9237 49.3065 10.1992 40.4527 9.88477Z" fill="#A91C22"/>
<path fill-rule="evenodd" clip-rule="evenodd" d="M40.5254 9.88477H40.3799C31.9136 9.88477 24.9474 15.8353 23.4473 23.6486C25.5032 24.979 28.1159 25.5836 32.2284 25.3658C38.2274 24.882 40.6944 22.3905 47.4192 22.2454C48.9917 22.1485 54.6039 22.2454 57.3853 25.4382C56.5144 16.9237 49.3064 10.1992 40.5254 9.88477Z" fill="#AB1D22"/>
<path fill-rule="evenodd" clip-rule="evenodd" d="M40.5978 9.88477H40.525C32.1553 9.88477 25.1891 15.908 23.7617 23.8664C25.7452 25.0517 28.3576 25.5836 32.2284 25.3661C38.2274 24.8824 40.6944 22.3909 47.4192 22.2458C48.9917 22.1488 54.6039 22.2458 57.3853 25.4385C56.5144 16.9237 49.3792 10.2958 40.5978 9.88477Z" fill="#AB1D22"/>
<path fill-rule="evenodd" clip-rule="evenodd" d="M40.7668 9.88477C32.3008 9.98139 25.3339 16.0771 24.0762 24.0354C26.0597 25.1241 28.5755 25.5836 32.2281 25.3658C38.2271 24.882 40.6941 22.3905 47.4189 22.2454C48.9914 22.1485 54.6036 22.2454 57.385 25.4382C56.5141 16.9964 49.4755 10.3685 40.7668 9.88477Z" fill="#AD1D23"/>
<path fill-rule="evenodd" clip-rule="evenodd" d="M40.8391 9.88477C32.4697 10.0541 25.5028 16.2225 24.4629 24.2774C26.3737 25.1241 28.8171 25.5836 32.228 25.3658C38.227 24.882 40.694 22.3905 47.4188 22.2454C48.9913 22.1485 54.6035 22.2454 57.3849 25.4382C56.5137 17.0931 49.5478 10.3685 40.8391 9.88477Z" fill="#AE1D23"/>
<path fill-rule="evenodd" clip-rule="evenodd" d="M40.9359 9.88477C32.615 10.0541 25.745 16.3672 24.8018 24.4225C26.6883 25.1965 28.9866 25.5836 32.2282 25.3658C38.2272 24.882 40.6942 22.3905 47.419 22.2454C48.9915 22.1485 54.6037 22.2454 57.3851 25.4382C56.5139 17.0931 49.548 10.4409 40.9359 9.88477Z" fill="#B01E24"/>
<path fill-rule="evenodd" clip-rule="evenodd" d="M41.0812 9.98047C32.7842 10.1256 25.9867 16.4633 25.1885 24.5909C27.0027 25.2925 29.2282 25.5827 32.2278 25.3649C38.2268 24.8811 40.6938 22.3896 47.4186 22.2445C48.9911 22.1476 54.6033 22.2445 57.3847 25.4373C56.5138 17.0921 49.6203 10.5127 41.0812 9.98047Z" fill="#B01E24"/>
<path fill-rule="evenodd" clip-rule="evenodd" d="M41.2508 9.98047C32.9296 10.1983 26.205 16.608 25.5762 24.736C27.318 25.2925 29.4466 25.5103 32.2286 25.3649C38.2277 24.8811 40.6946 22.3896 47.4195 22.2445C48.992 22.1476 54.6042 22.2445 57.3856 25.4373C56.5144 17.1648 49.6935 10.6093 41.2508 9.98047Z" fill="#B21E24"/>
<path fill-rule="evenodd" clip-rule="evenodd" d="M41.3236 9.98047C33.0993 10.2949 26.4472 16.6808 25.9873 24.8084C27.6322 25.3649 29.616 25.51 32.2284 25.3649C38.2274 24.8811 40.6944 22.3896 47.4192 22.2445C48.9917 22.1476 54.604 22.2445 57.3853 25.4373C56.5144 17.1648 49.7902 10.682 41.3236 9.98047Z" fill="#B31E24"/>
<path fill-rule="evenodd" clip-rule="evenodd" d="M41.4687 9.98047C33.2441 10.3676 26.6886 16.8501 26.3018 24.8811C27.9466 25.3649 29.785 25.5103 32.2284 25.3649C38.2275 24.8811 40.6944 22.3896 47.4193 22.2445C48.9918 22.1476 54.604 22.2445 57.3854 25.4373C56.5141 17.2372 49.8627 10.682 41.4687 9.98047Z" fill="#B51F25"/>
<path fill-rule="evenodd" clip-rule="evenodd" d="M41.5658 9.98047C33.4142 10.44 27.0038 16.9228 26.7617 25.0505C28.1891 25.3649 30.003 25.51 32.2289 25.3649C38.2279 24.8811 40.6949 22.3896 47.4197 22.2445C48.9922 22.1476 54.6044 22.2445 57.3858 25.4373C56.5146 17.3096 49.8631 10.7544 41.5658 9.98047Z" fill="#B71F25"/>
<path fill-rule="evenodd" clip-rule="evenodd" d="M41.71 9.98047C33.655 10.5127 27.2446 17.0918 27.1719 25.1228C28.575 25.3649 30.1714 25.51 32.2276 25.3649C38.2267 24.8811 40.6936 22.3896 47.4185 22.2445C48.991 22.1476 54.6032 22.2445 57.3846 25.4373C56.5137 17.3096 49.9349 10.8268 41.71 9.98047Z" fill="#B71F25"/>
<path fill-rule="evenodd" clip-rule="evenodd" d="M27.5596 25.1232V25.1956C28.8176 25.4376 30.414 25.4376 32.2285 25.3649C38.2276 24.8811 40.6945 22.3896 47.4194 22.2445C48.9918 22.1476 54.6041 22.2445 57.3855 25.4373C56.5146 17.3823 50.0324 10.8995 41.8075 9.98047C33.8003 10.5127 27.5596 17.1648 27.5596 25.1232Z" fill="#B81F25"/>
<path fill-rule="evenodd" clip-rule="evenodd" d="M27.9463 24.9781V25.2925C29.1316 25.4376 30.559 25.4376 32.2281 25.3649C38.2271 24.8811 40.6941 22.3896 47.4189 22.2445C48.9914 22.1476 54.6037 22.2445 57.385 25.4373C56.5141 17.3823 50.1044 10.9965 41.9525 9.98047C34.1147 10.6097 27.9463 17.0925 27.9463 24.9781Z" fill="#BA1F26"/>
<path fill-rule="evenodd" clip-rule="evenodd" d="M28.3574 24.8083V25.2924C29.4461 25.4375 30.7284 25.4375 32.2282 25.3648C38.2272 24.881 40.6942 22.3895 47.419 22.2444C48.9915 22.1474 54.6037 22.2444 57.3851 25.4372C56.5142 17.4788 50.1772 10.9964 42.0249 10.0527C34.3565 10.6819 28.3574 17.092 28.3574 24.8083Z" fill="#BC2026"/>
<path fill-rule="evenodd" clip-rule="evenodd" d="M28.7451 24.6632V25.3648C29.7854 25.4372 30.8737 25.4372 32.2287 25.3648C38.2278 24.881 40.6947 22.3895 47.4196 22.2444C48.9921 22.1474 54.6043 22.2444 57.3857 25.4372C56.5875 17.4788 50.1777 11.0687 42.1948 10.0527C34.5987 10.7543 28.7451 16.9954 28.7451 24.6632Z" fill="#BD2026"/>
<path fill-rule="evenodd" clip-rule="evenodd" d="M29.1318 24.4939V25.3648C30.0994 25.4372 31.1154 25.4372 32.2283 25.3648C38.2274 24.881 40.6943 22.3895 47.4192 22.2444C48.9916 22.1474 54.6039 22.2444 57.3853 25.4372C56.5871 17.5515 50.2494 11.1411 42.2671 10.0527C34.9127 10.8267 29.1318 16.9954 29.1318 24.4939Z" fill="#BD2026"/>
<path fill-rule="evenodd" clip-rule="evenodd" d="M29.543 24.3488C29.543 24.7359 29.543 25.0503 29.6157 25.3648C30.4139 25.4372 31.2844 25.4372 32.2284 25.3648C38.2274 24.881 40.6944 22.3895 47.4192 22.2444C48.9917 22.1474 54.604 22.2444 57.3853 25.4372C56.5871 17.5515 50.3467 11.2138 42.4365 10.0527C35.1549 10.8997 29.543 16.9227 29.543 24.3488Z" fill="#BF2026"/>
<path fill-rule="evenodd" clip-rule="evenodd" d="M29.9297 24.1794C29.9297 24.5908 30.0021 25.0503 30.0021 25.4372C30.7282 25.4372 31.4295 25.4372 32.228 25.3648C38.227 24.881 40.694 22.3895 47.4188 22.2444C48.9913 22.1474 54.6035 22.2444 57.3849 25.4372C56.5867 17.6239 50.419 11.3108 42.5812 10.0527C35.4689 10.9964 29.9297 16.9227 29.9297 24.1794Z" fill="#C12127"/>
<path fill-rule="evenodd" clip-rule="evenodd" d="M30.3174 24.0355C30.3174 24.4954 30.4143 24.9791 30.4143 25.4387C30.9705 25.4387 31.5993 25.4387 32.2285 25.3663C38.2276 24.8825 40.6945 22.391 47.4194 22.2459C48.9919 22.149 54.6041 22.2459 57.3855 25.4387C56.5873 17.6254 50.4919 11.3847 42.6545 10.127C35.7115 10.9975 30.3174 16.9239 30.3174 24.0355Z" fill="#C32127"/>
<path fill-rule="evenodd" clip-rule="evenodd" d="M30.7285 23.8646C30.7285 24.3483 30.8009 24.8806 30.8736 25.4367C31.2847 25.4367 31.7445 25.3643 32.2286 25.3643C38.2277 24.8806 40.6946 22.389 47.4195 22.2439C48.9919 22.147 54.6042 22.2439 57.3856 25.4367C56.5874 17.6962 50.5641 11.3827 42.8239 10.125C36.026 11.0683 30.7285 16.8495 30.7285 23.8646Z" fill="#C32127"/>
<path fill-rule="evenodd" clip-rule="evenodd" d="M31.1152 23.7195C31.1152 24.2759 31.1876 24.8079 31.2842 25.4367C31.5987 25.3643 31.9134 25.3643 32.2279 25.3643C38.2269 24.8806 40.6939 22.389 47.4187 22.2439C48.9912 22.147 54.6034 22.2439 57.3848 25.4367C56.5866 17.6962 50.5633 11.4554 42.8955 10.125C36.2673 11.141 31.1152 16.8495 31.1152 23.7195Z" fill="#C42127"/>
<path fill-rule="evenodd" clip-rule="evenodd" d="M31.5986 23.4789C31.5986 24.1078 31.5986 24.8094 31.6713 25.3658H32.2278C38.2269 24.8821 40.6938 22.3905 47.4187 22.2455C48.9911 22.1485 54.6034 22.2455 57.3848 25.4382C56.5866 17.7946 50.6606 11.5293 43.0648 10.1992C36.4854 11.2149 31.5986 16.7786 31.5986 23.4789Z" fill="#C62128"/>
<path fill-rule="evenodd" clip-rule="evenodd" d="M31.9863 23.3338C31.9863 24.0351 31.9863 24.737 32.1557 25.3658H32.2284C38.2274 24.8821 40.6944 22.3905 47.4192 22.2455C48.9917 22.1485 54.6039 22.2455 57.3853 25.4382C56.5871 17.867 50.7332 11.6263 43.2108 10.1992C36.8243 11.3118 31.9863 16.7786 31.9863 23.3338Z" fill="#C92228"/>
<path fill-rule="evenodd" clip-rule="evenodd" d="M32.374 23.1648C32.374 23.963 32.4706 24.6646 32.5434 25.3658C38.3246 24.8094 40.7676 22.3905 47.4198 22.2455C48.9923 22.1485 54.6045 22.2455 57.3859 25.4382C56.5877 17.867 50.8064 11.6986 43.308 10.1992C37.0423 11.3118 32.374 16.6817 32.374 23.1648Z" fill="#CC2229"/>
<path fill-rule="evenodd" clip-rule="evenodd" d="M43.4518 10.2949C37.3562 11.3836 32.7842 16.6808 32.7842 23.0185C32.7842 23.7924 32.8569 24.591 32.9289 25.2925C38.3964 24.6633 40.9358 22.3896 47.4189 22.2445C48.9914 22.1476 54.6036 22.2445 57.385 25.4373C56.5865 17.9388 50.8776 11.7704 43.4518 10.2949Z" fill="#CC2229"/>
<path fill-rule="evenodd" clip-rule="evenodd" d="M58.6239 40.9758C58.4715 40.74 58.2368 40.6016 57.9858 40.6016H54.2007C54.0728 40.6016 53.9583 40.6228 53.8557 40.6593C53.7782 40.6289 53.6959 40.6127 53.6127 40.6115H45.0268C43.8186 40.6115 42.4413 41.2288 41.7168 42.2278C41.6664 42.1127 41.607 42.0017 41.5392 41.8958C41.0166 41.0747 40.4654 40.6016 39.1157 40.6016H30.8895C30.7829 40.6016 30.6833 40.6145 30.5946 40.6437L30.3642 40.6016H19.145C18.6746 40.6016 18.3791 40.8864 18.2383 41.1979C17.7077 40.7978 16.9789 40.6016 16.0316 40.6016H7.80336C7.21501 40.6016 6.90391 41.0458 6.8209 41.425C6.71565 41.8845 6.87269 42.3766 7.2097 42.6505C7.20094 42.7589 7.18362 42.8665 7.1579 42.9722L5.12923 51.332C5.06083 51.6192 5.10864 51.9253 5.25739 52.1604C5.40647 52.3981 5.6442 52.5369 5.89753 52.5369H9.11852C9.76929 52.5369 10.2036 51.9698 10.3307 51.4445C10.3284 51.4469 10.5303 50.6287 10.6814 50.0115H14.8662C15.6873 50.0115 16.3823 49.7293 16.952 49.2827L16.4503 51.3293C16.3822 51.6142 16.4267 51.9227 16.5785 52.1607C16.7299 52.3961 16.9653 52.5372 17.2166 52.5372H27.7063C27.9856 52.5372 28.2316 52.4326 28.4222 52.268C28.5709 52.4353 28.7695 52.5372 28.9793 52.5372H32.2016C32.8501 52.5372 33.2864 51.9701 33.4122 51.4449C33.4122 51.4472 33.6131 50.6291 33.7648 50.0118H37.95C38.7419 50.0118 39.4109 49.7535 39.9707 49.3302C39.8611 49.7741 39.4793 51.3293 39.4793 51.3293C39.4079 51.6142 39.4561 51.9227 39.6045 52.1584C39.7562 52.3961 39.9916 52.5372 40.2426 52.5372H49.2611C50.1101 52.5372 50.8661 52.268 51.4907 51.7606C51.5113 51.9021 51.5641 52.0409 51.6391 52.1607C51.7882 52.3984 52.0262 52.5372 52.2773 52.5372H55.2857C55.9342 52.5372 56.3688 51.9701 56.496 51.4449L58.7574 41.7939C58.8225 41.5143 58.7727 41.2082 58.6239 40.9758Z" fill="black"/>
<path fill-rule="evenodd" clip-rule="evenodd" d="M58.2656 40.5444C58.1139 40.3087 57.8785 40.1703 57.6274 40.1703H53.8424C53.7145 40.1703 53.6 40.1908 53.4974 40.228C53.4199 40.1976 53.3376 40.1815 53.2543 40.1802H44.6701C43.4626 40.1802 42.4406 40.7294 41.7164 41.7281C41.6661 41.6125 41.6076 41.5005 41.5415 41.3931C41.0188 40.57 40.1064 40.1699 38.7574 40.1699H30.5311C30.4236 40.1699 30.3243 40.1829 30.2356 40.2121L30.0059 40.1699H18.789C18.3132 40.1699 18.0207 40.4571 17.877 40.7662C17.3487 40.3685 16.6173 40.1699 15.6733 40.1699H7.44471C6.85669 40.1699 6.54824 40.6142 6.46158 40.9957C6.36031 41.4532 6.51437 41.9423 6.84839 42.2192C6.84292 42.3278 6.82634 42.4356 6.79892 42.5409L4.7709 50.903C4.73646 51.0428 4.73006 51.188 4.75206 51.3303C4.77405 51.4726 4.82402 51.6092 4.89906 51.7321C5.05013 51.9698 5.28587 52.1086 5.53423 52.1086H8.75953C9.41096 52.1086 9.84459 51.5408 9.97242 51.0156C9.97242 51.0156 10.171 50.1998 10.323 49.5835H14.5079C15.331 49.5835 16.0236 49.301 16.596 48.8511L16.092 50.901C16.0572 51.0411 16.0506 51.1868 16.0725 51.3295C16.0944 51.4722 16.1443 51.6091 16.2195 51.7324C16.3712 51.9671 16.607 52.1089 16.8603 52.1089H27.3473C27.6296 52.1089 27.8703 52.0013 28.0609 51.837C28.2129 52.0096 28.4092 52.1089 28.6203 52.1089H31.8436C32.4944 52.1089 32.9284 51.5411 33.0565 51.0159C33.0532 51.0159 33.2581 50.2001 33.4075 49.5839H37.5923C38.3842 49.5839 39.0532 49.3222 39.6097 48.9012C39.5055 49.3458 39.1206 50.8983 39.1206 50.8983C39.0499 51.1855 39.0981 51.4947 39.2465 51.7327C39.3982 51.9675 39.6356 52.1092 39.884 52.1092H48.9025C49.7521 52.1092 50.5075 51.8373 51.1347 51.3296C51.1536 51.4734 51.2054 51.6119 51.2818 51.7327C51.4328 51.9675 51.6656 52.1092 51.9186 52.1092H54.9274C55.5759 52.1092 56.0092 51.5415 56.1376 51.0162L58.3991 41.3679C58.4322 41.2286 58.4374 41.0842 58.4145 40.9428C58.3916 40.8015 58.341 40.6661 58.2656 40.5444Z" fill="white"/>
<path fill-rule="evenodd" clip-rule="evenodd" d="M39.7171 50.8801H48.7356C50.5727 50.8801 51.4326 49.4106 51.7965 48.1346L51.9476 47.5781C52.4231 45.8948 52.1777 44.6424 49.7044 44.6424H45.1514L45.2712 44.1407C45.4153 43.636 45.7181 43.385 46.3271 43.385H52.1043C52.4486 43.385 52.5492 42.9753 52.5492 42.9753L53.0868 40.8443H44.5003C42.6565 40.8443 41.7999 42.3105 41.442 43.5898L41.2799 44.1513C40.8071 45.8317 41.0498 47.0871 43.5258 47.0871H48.1286L47.9659 47.6382C47.8252 48.1449 47.5303 48.3514 46.9207 48.3514L40.6843 48.3494C40.3393 48.3494 40.2394 48.7598 40.2394 48.7598L39.7171 50.8801ZM53.6725 40.832C53.3773 40.832 53.4318 41.096 53.55 41.1767C53.631 41.2344 54.0434 41.4174 53.7983 42.5104L51.7491 50.8805H54.7599C55.1022 50.8805 55.2048 50.4701 55.2048 50.4701L57.4602 40.8324L53.6725 40.832ZM21.1967 47.0426H27.1778C27.5231 47.0426 27.6224 46.6322 27.6224 46.6322L28.1108 44.6015H21.785L22.0105 43.7389C22.0105 43.7389 22.1098 43.3285 22.4541 43.3285H28.8818C29.2271 43.3285 29.3263 42.9182 29.3263 42.9182L29.833 40.8324H18.6195C18.322 40.8324 18.3768 41.0993 18.4967 41.177C18.575 41.2348 18.991 41.4177 18.745 42.5108L16.6904 50.8808L27.1778 50.8828C27.5231 50.8828 27.6247 50.4704 27.6247 50.4704L28.148 48.3471H20.8809L21.1967 47.0426Z" fill="#255398"/>
<path fill-rule="evenodd" clip-rule="evenodd" d="M15.5032 40.832H7.27696C6.98113 40.832 7.03591 41.096 7.15378 41.1767C7.23247 41.2344 7.64817 41.4174 7.40014 42.5104L5.36914 50.8805H8.59179C8.93709 50.8805 9.03637 50.4701 9.03637 50.4701L9.55632 48.3554H14.3368C16.1776 48.3554 17.1524 46.6325 17.521 45.1344L17.7328 44.2748C18.2136 42.3036 17.9788 40.832 15.5032 40.832ZM14.2771 44.2715L14.1675 44.6952C14.0237 45.2908 13.7179 45.6102 13.1063 45.6102H10.2413L10.6992 43.7409C10.6992 43.7409 10.7984 43.3305 11.1437 43.3305H13.4304C14.217 43.3305 14.4444 43.5922 14.2771 44.2715ZM38.5897 40.832H30.3611C30.0656 40.832 30.12 41.096 30.2402 41.1767C30.3166 41.2344 30.7346 41.4174 30.4839 42.5104L28.4519 50.8805H31.6752C32.0205 50.8805 32.1198 50.4701 32.1198 50.4701L32.6401 48.3554H37.4239C39.2637 48.3554 40.2365 46.6325 40.6047 45.1344L40.8136 44.2748C41.2977 42.3036 41.0623 40.832 38.5897 40.832ZM37.3588 44.2715L37.2546 44.6952C37.1082 45.2908 36.802 45.6102 36.1931 45.6102H33.3281L33.7833 43.7409C33.7833 43.7409 33.8792 43.3305 34.2268 43.3305H36.5172C37.3011 43.3305 37.5255 43.5922 37.3588 44.2715Z" fill="#255398"/>
<path fill-rule="evenodd" clip-rule="evenodd" d="M51.8139 42.6292H46.0373C45.3344 42.6292 44.9187 42.9376 44.7305 43.5993L44.6053 44.109C44.5834 44.2053 44.597 44.3075 44.6461 44.3882C44.6959 44.4669 44.7746 44.5137 44.8606 44.5137H44.9184L45.0333 44.0542C45.2195 43.3895 45.6349 43.081 46.3431 43.081H52.1167C52.2502 43.081 52.3003 42.927 52.308 42.8958L52.7426 41.1679H52.3269L52.0052 42.4432C51.9999 42.4721 51.9474 42.6292 51.8139 42.6292ZM48.0577 46.4634C48.0086 46.3797 47.9266 46.3279 47.8379 46.3279H43.235C42.3907 46.3279 41.7871 46.1788 41.4388 45.8754L41.5307 46.0849C41.8103 46.5501 42.4873 46.7831 43.5358 46.7831H48.0786L48.0922 46.7459C48.1181 46.6497 48.1078 46.5421 48.0577 46.4634ZM51.7229 45.6589C51.6665 45.5687 51.5967 45.4876 51.5161 45.4182C51.6413 45.7977 51.6074 46.3249 51.4085 47.0335L51.2491 47.5929C50.9281 48.7481 50.1754 50.1203 48.4452 50.1203H40.1977C40.1555 50.2853 40.1193 50.4417 40.0854 50.5752H48.748C50.4788 50.5752 51.2259 49.1976 51.5553 48.0425L51.7097 47.488C51.95 46.6414 51.9577 46.0404 51.7229 45.6589ZM56.715 41.1543L54.6574 49.9434C54.6521 49.9659 54.6029 50.1233 54.4695 50.1233L52.2276 50.1203L52.1167 50.5752H54.7736C54.9064 50.5752 54.9532 50.4211 54.9615 50.3972L57.123 41.1543H56.715ZM27.0783 49.94C27.073 49.9689 27.0205 50.1233 26.8901 50.1233L17.1687 50.1203L17.0561 50.5752H27.1909C27.3233 50.5752 27.3738 50.4211 27.3815 50.3919L27.8051 48.672H27.3917L27.0783 49.94ZM26.8871 46.2858H20.9066C20.7891 46.2858 20.6845 46.3774 20.6533 46.5132L20.3339 47.8184C20.3133 47.9143 20.3286 48.014 20.3784 48.0976C20.4278 48.176 20.5042 48.2205 20.5902 48.2205H20.6503L20.9534 46.9654C20.9876 46.8299 21.0899 46.7386 21.2098 46.7386H27.1909C27.3233 46.7386 27.3738 46.5813 27.3791 46.5577L27.7736 44.9271H27.3609L27.0786 46.1028C27.07 46.1297 27.0202 46.2858 26.8871 46.2858ZM28.5914 42.5714H22.1663C21.7354 42.5714 21.5209 42.9871 21.4661 43.2095L21.244 44.0668C21.2177 44.1638 21.2337 44.268 21.2801 44.3467C21.3326 44.4277 21.4133 44.4742 21.4973 44.4742H21.5571C21.6015 44.2973 21.7692 43.6594 21.7692 43.6618C21.8217 43.4393 22.0362 43.0243 22.4671 43.0243H28.8948C29.0283 43.0243 29.0748 42.8695 29.0831 42.8413L29.4958 41.1546H29.0831L28.7823 42.3884C28.7743 42.415 28.7245 42.5714 28.5914 42.5714ZM17.4871 44.1976C17.759 43.0993 17.7464 42.3413 17.4509 41.8765C17.397 41.793 17.333 41.7164 17.2603 41.6487C17.4403 42.1192 17.4167 42.8068 17.1893 43.7428L16.9781 44.6024C16.8051 45.3053 16.0836 47.5976 14.0526 47.5976H9.26678C9.14891 47.5976 9.04465 47.6896 9.01278 47.8234L8.49249 49.94C8.48519 49.9659 8.43572 50.1203 8.30191 50.1203H5.84525L5.73535 50.5752H8.60505C8.73853 50.5752 8.788 50.4211 8.79597 50.3919L9.31326 48.2773C9.34447 48.1418 9.45172 48.0498 9.5666 48.0498H14.3534C16.3867 48.0498 17.1052 45.7582 17.2779 45.0569L17.4871 44.1976ZM9.95374 45.4809H10.0145C10.0849 45.1831 10.4561 43.6614 10.4561 43.6641C10.5112 43.4416 10.7254 43.0236 11.1593 43.0236H13.4467C13.7179 43.0236 14.0393 43.0495 14.2771 43.2119C14.256 43.1251 14.2217 43.0422 14.1755 42.9658C13.9533 42.6152 13.5084 42.5711 13.1455 42.5711H10.8552C10.4219 42.5711 10.2077 42.9868 10.153 43.2092L9.69808 45.0808C9.67418 45.1748 9.68978 45.2774 9.74257 45.3551C9.79238 45.4338 9.87074 45.4809 9.95374 45.4809ZM33.0375 45.4809H33.0979C33.1693 45.1831 33.5375 43.6614 33.5375 43.6641C33.5953 43.4416 33.8091 43.0236 34.2404 43.0236H36.5301C36.8017 43.0236 37.1208 43.0495 37.3588 43.2119C37.3384 43.1253 37.305 43.0423 37.2596 42.9658C37.0371 42.6152 36.5895 42.5711 36.2266 42.5711H33.9393C33.506 42.5711 33.2889 42.9868 33.2364 43.2092L32.7845 45.0808C32.7586 45.1748 32.7742 45.2774 32.8234 45.3551C32.8755 45.4338 32.9519 45.4809 33.0375 45.4809ZM40.5742 44.1976C40.8434 43.0993 40.8302 42.3413 40.5373 41.8765C40.4813 41.7946 40.4175 41.7183 40.3467 41.6487C40.5244 42.1192 40.5011 42.8068 40.2734 43.7428L40.0592 44.6024C39.8892 45.3053 39.1674 47.5976 37.1337 47.5976H32.3502C32.2304 47.5976 32.1308 47.6896 32.0969 47.8234L31.5769 49.94C31.5696 49.9659 31.5198 50.1203 31.3887 50.1203H28.9294L28.8168 50.5752H31.6895C31.823 50.5752 31.8728 50.4211 31.8801 50.3919L32.398 48.2773C32.4292 48.1418 32.5368 48.0498 32.6517 48.0498H37.4375C39.4718 48.0498 40.193 45.7582 40.363 45.0569L40.5742 44.1976Z" fill="#4BB8EF"/>
</svg>
