<svg width="64" height="64" viewBox="0 0 64 64" fill="none" xmlns="http://www.w3.org/2000/svg">
<rect width="64" height="64" fill="white"/>
<path fill-rule="evenodd" clip-rule="evenodd" d="M61.1761 35.4493H50.7854V33.6205H61.1761V30.1293H50.7854V28.5498H61.1761V25.0589H47.2945V38.9409H61.1761V35.4493ZM21.0183 30.1293H28.0097V28.5498H21.1106L21.0183 30.1293ZM31.501 25.0589V38.9409H17.7023V25.0589H31.501ZM21.1106 35.4493H28.0097V33.6205H21.1106V35.4493ZM16.7879 28.5498H11.5512V38.8573H8.05996V28.5498H2.82324V25.0589H16.7879V28.5498ZM46.2971 38.9406H32.4987V25.0586H46.2974V38.9406H46.2971ZM35.9066 28.5498V35.449H42.8058V28.5498H35.9066Z" fill="#BD2930"/>
</svg>
